<?xml version="1.0" encoding="utf-8"?>
<!-- Generator: Adobe Illustrator 23.1.1, SVG Export Plug-In . SVG Version: 6.00 Build 0)  -->
<svg version="1.1" xmlns="http://www.w3.org/2000/svg" xmlns:xlink="http://www.w3.org/1999/xlink" x="0px" y="0px"
	 viewBox="0 0 48 48" enable-background="new 0 0 48 48" xml:space="preserve">
<g id="Icon_Grid" display="none">
</g>
<g id="BG" display="none">
	<rect display="inline" fill="#FFFFFF" width="48" height="48"/>
</g>
<g id="Mengenal_Surabaya">
</g>
<g id="Layanan_Publik">
</g>
<g id="Informasi_Publik">
	<g>
		<g>
			<g>
				<path fill="#004AE1" d="M30.098,14.698L30.098,14.698c-0.115,0-0.232-0.005-0.349-0.015c-0.317-0.026-0.64-0.088-0.958-0.183
					c-0.269-0.082-0.521-0.181-0.749-0.294c-0.648-0.32-1.208-0.785-1.66-1.381c-0.65-0.86-0.944-1.835-0.874-2.901
					c0.076-1.359,0.704-2.51,1.767-3.229c1.054-0.707,2.314-0.879,3.62-0.494c1.01,0.312,1.819,0.87,2.42,1.662
					c0.643,0.83,0.957,1.769,0.93,2.783c-0.054,1.419-0.676,2.564-1.8,3.321C31.72,14.453,30.932,14.698,30.098,14.698z M29.552,8
					c-0.426,0-0.805,0.116-1.159,0.354c-0.547,0.369-0.847,0.94-0.889,1.691c-0.038,0.59,0.116,1.102,0.472,1.572
					c0.262,0.345,0.584,0.614,0.954,0.796c0.138,0.068,0.286,0.125,0.439,0.172c0.177,0.052,0.368,0.089,0.545,0.104
					c0.499,0.038,0.974-0.087,1.415-0.383c0.595-0.4,0.887-0.949,0.916-1.726c0.015-0.537-0.155-1.031-0.52-1.501
					c-0.353-0.467-0.812-0.779-1.409-0.963C30.059,8.041,29.798,8,29.552,8z"/>
			</g>
			<g>
				<path fill="#004AE1" d="M19.822,42L19.822,42c-0.298,0-0.583-0.011-0.854-0.032c-0.612-0.05-1.172-0.154-1.665-0.31
					c-0.316-0.098-0.625-0.221-0.909-0.364c-0.734-0.36-1.342-0.854-1.797-1.464c-0.689-0.913-0.965-2.02-0.792-3.196
					c0.337-2.164,2.131-6.108,6.333-13.887c-0.513,0.222-1.24,0.553-2.271,1.047c-0.702,0.337-1.628,0.162-2.157-0.409l-1.236-1.3
					c-0.396-0.422-0.575-1.004-0.485-1.562c0.081-0.547,0.409-1.031,0.899-1.316c2.523-1.44,4.706-2.308,6.685-2.658
					c2.015-0.363,3.817-0.323,5.264,0.119c0.99,0.298,1.745,0.74,2.302,1.351c0.681,0.744,1.008,1.63,0.945,2.561
					c-0.049,0.617-0.41,1.884-2.733,6.684c-2.148,4.156-3.534,7.038-4.145,8.618c0.715-0.199,1.838-0.574,3.556-1.277
					c0.759-0.305,1.657-0.062,2.145,0.546l1.184,1.405c0.384,0.465,0.52,1.057,0.379,1.632c-0.132,0.57-0.544,1.051-1.099,1.276
					c-3.396,1.385-5.979,2.198-7.672,2.414C21.028,41.958,20.399,42,19.822,42z M21.629,20.267c0.187,0,0.357,0.016,0.515,0.044
					c0.268,0.047,0.507,0.202,0.658,0.429c0.152,0.227,0.204,0.507,0.145,0.774c-0.055,0.247-0.147,0.502-0.275,0.758
					c-4.524,8.305-6.58,12.68-6.889,14.662c-0.095,0.644,0.04,1.201,0.414,1.696c0.268,0.358,0.631,0.65,1.086,0.873
					c0.194,0.098,0.399,0.179,0.616,0.246c0.358,0.113,0.769,0.188,1.229,0.226C19.347,39.991,19.579,40,19.822,40l0,0
					c0.496,0,1.043-0.036,1.625-0.108c1.487-0.19,3.837-0.932,6.979-2.205l-1.012-1.201c-2.554,1.054-4.424,1.617-5.352,1.617
					c-0.136,0-0.235-0.011-0.307-0.023c-0.193-0.033-0.374-0.122-0.517-0.257c-0.032-0.03-0.091-0.095-0.119-0.129
					c-0.037-0.046-0.07-0.095-0.1-0.148c-0.148-0.268-0.195-0.524-0.148-0.805c0.149-1.194,1.553-4.309,4.688-10.373
					c2.283-4.716,2.512-5.735,2.527-5.934c0.025-0.379-0.109-0.721-0.427-1.067c-0.307-0.336-0.767-0.593-1.405-0.785
					c-1.146-0.349-2.632-0.37-4.332-0.063c-1.709,0.302-3.63,1.063-5.87,2.327l1.057,1.111c2.59-1.258,3.371-1.518,3.755-1.602
					C21.12,20.296,21.379,20.267,21.629,20.267z"/>
			</g>
		</g>
		<path fill="#004AE1" d="M39,48H9c-4.963,0-9-4.038-9-9V9c0-4.962,4.037-9,9-9h30c4.963,0,9,4.038,9,9v30
			C48,43.962,43.963,48,39,48z M9,2C5.141,2,2,5.14,2,9v30c0,3.86,3.141,7,7,7h30c3.859,0,7-3.14,7-7V9c0-3.86-3.141-7-7-7H9z"/>
	</g>
</g>
<g id="Home">
</g>
<g id="Tentang_Surabaya">
</g>
<g id="Pemerintahan">
</g>
<g id="Ada_Apa_di_Surabaya_x3F_">
</g>
<g id="Pengaduan_Masyarakat">
</g>
<g id="Perizinan">
</g>
<g id="Kesehatan">
</g>
<g id="Pendidikan">
</g>
<g id="Sosial_Masyarakat">
</g>
<g id="Kependudukan">
</g>
<g id="Pemberdayaan_Ekonomi">
</g>
<g id="Whistle_Blower_System">
</g>
<g id="JDIH">
</g>
<g id="PPID">
</g>
<g id="Open_Data">
</g>
<g id="Satu_Peta">
</g>
<g id="Foto">
</g>
<g id="Video">
</g>
<g id="Infografis">
</g>
<g id="Podcast">
</g>
<g id="Berita_Terbaru">
</g>
<g id="Siaran_Pers">
</g>
<g id="Visi__x26__Misi">
</g>
<g id="Struktur_Organisasi_Pemerintahan_Surabaya">
</g>
<g id="Perangkat_Daerah">
</g>
<g id="Profil_Walikota_Surabaya">
</g>
<g id="Alamat_Pemerintah_Kota_Surabaya">
</g>
<g id="Transportasi">
</g>
<g id="Bisnis__x26__Investasi">
</g>
<g id="Akomodasi">
</g>
<g id="Wisata">
</g>
<g id="Media_Center">
</g>
<g id="SSW_Alfa">
</g>
<g id="EHealth">
</g>
<g id="Lawan_Covid">
</g>
<g id="Wadul_Sertifikat_Vaksin">
</g>
<g id="Profil_Sekolah">
</g>
<g id="Rapor_Online">
</g>
<g id="Sistem_Informasi_Aplikasi_Guru">
</g>
<g id="EPemuktakhiran_Data">
</g>
<g id="Klampid">
</g>
<g id="EPeken_Surabaya">
</g>
<g id="Username">
</g>
<g id="Password_1_">
</g>
<g id="Pencarian">
</g>
<g id="Share">
</g>
<g id="Lihat_Semua">
</g>
<g id="User">
</g>
<g id="Contact">
</g>
<g id="Location">
</g>
<g id="Play_Podcast">
</g>
<g id="Previous_Blue">
</g>
<g id="Next">
</g>
<g id="Navigasi_Previous">
</g>
<g id="Navigasi_Next">
</g>
<g id="Play_Video">
</g>
<g id="Facebook_1_">
</g>
<g id="Twitter">
</g>
<g id="Instagram_1_">
</g>
<g id="Youtube">
</g>
</svg>
