<?xml version="1.0" encoding="utf-8"?>
<!-- Generator: Adobe Illustrator 23.1.1, SVG Export Plug-In . SVG Version: 6.00 Build 0)  -->
<svg version="1.1" xmlns="http://www.w3.org/2000/svg" xmlns:xlink="http://www.w3.org/1999/xlink" x="0px" y="0px"
	 viewBox="0 0 48 48" enable-background="new 0 0 48 48" xml:space="preserve">
<g id="Icon_Grid" display="none">
</g>
<g id="BG" display="none">
	<rect display="inline" fill="#FFFFFF" width="48" height="48"/>
</g>
<g id="Mengenal_Surabaya">
</g>
<g id="Layanan_Publik">
	<g>
		<path fill="#004AE1" d="M44.612,17.062C42.736,7.14,34.182,0,24,0C13.83,0,5.264,7.145,3.387,17.062C1.474,17.36,0,19.004,0,21v6
			c0,2.206,1.794,4,4,4h2c0.553,0,1-0.448,1-1V18c0-0.552-0.447-1-1-1H5.44C7.304,8.256,14.948,2,24,2
			c9.062,0,16.698,6.252,18.561,15H42c-0.553,0-1,0.448-1,1v12c0,0.552,0.447,1,1,1h0.316c-2,7.321-8.286,12.76-15.725,13.802
			C26.227,44.318,25.651,44,25,44h-2c-1.103,0-2,0.897-2,2s0.897,2,2,2h2c0.824,0,1.533-0.501,1.839-1.215
			c8.423-1.17,15.521-7.439,17.559-15.825C46.415,30.757,48,29.069,48,27v-6C48,19.004,46.526,17.359,44.612,17.062z M5,29H4
			c-1.102,0-2-0.897-2-2v-6c0-1.103,0.898-2,2-2h1V29z M46,27c0,1.103-0.897,2-2,2h-1V19h1c1.103,0,2,0.897,2,2V27z"/>
		<path fill="#004AE1" d="M24,42c-8.271,0-15-6.729-15-15v-6c0-8.271,6.729-15,15-15s15,6.729,15,15v6C39,35.271,32.271,42,24,42z
			 M24,8c-7.168,0-13,5.832-13,13v6c0,7.168,5.832,13,13,13s13-5.832,13-13v-6C37,13.832,31.168,8,24,8z"/>
		<path fill="#004AE1" d="M32,29c0-0.552-0.447-1-1-1s-1,0.448-1,1c0,3.309-2.691,6-6,6s-6-2.691-6-6c0-0.552-0.447-1-1-1
			s-1,0.448-1,1c0,4.411,3.589,8,8,8S32,33.411,32,29z"/>
	</g>
</g>
<g id="Informasi_Publik">
</g>
<g id="Home">
</g>
<g id="Tentang_Surabaya">
</g>
<g id="Pemerintahan">
</g>
<g id="Ada_Apa_di_Surabaya_x3F_">
</g>
<g id="Pengaduan_Masyarakat">
</g>
<g id="Perizinan">
</g>
<g id="Kesehatan">
</g>
<g id="Pendidikan">
</g>
<g id="Sosial_Masyarakat">
</g>
<g id="Kependudukan">
</g>
<g id="Pemberdayaan_Ekonomi">
</g>
<g id="Whistle_Blower_System">
</g>
<g id="JDIH">
</g>
<g id="PPID">
</g>
<g id="Open_Data">
</g>
<g id="Satu_Peta">
</g>
<g id="Foto">
</g>
<g id="Video">
</g>
<g id="Infografis">
</g>
<g id="Podcast">
</g>
<g id="Berita_Terbaru">
</g>
<g id="Siaran_Pers">
</g>
<g id="Visi__x26__Misi">
</g>
<g id="Struktur_Organisasi_Pemerintahan_Surabaya">
</g>
<g id="Perangkat_Daerah">
</g>
<g id="Profil_Walikota_Surabaya">
</g>
<g id="Alamat_Pemerintah_Kota_Surabaya">
</g>
<g id="Transportasi">
</g>
<g id="Bisnis__x26__Investasi">
</g>
<g id="Akomodasi">
</g>
<g id="Wisata">
</g>
<g id="Media_Center">
</g>
<g id="SSW_Alfa">
</g>
<g id="EHealth">
</g>
<g id="Lawan_Covid">
</g>
<g id="Wadul_Sertifikat_Vaksin">
</g>
<g id="Profil_Sekolah">
</g>
<g id="Rapor_Online">
</g>
<g id="Sistem_Informasi_Aplikasi_Guru">
</g>
<g id="EPemuktakhiran_Data">
</g>
<g id="Klampid">
</g>
<g id="EPeken_Surabaya">
</g>
<g id="Username">
</g>
<g id="Password_1_">
</g>
<g id="Pencarian">
</g>
<g id="Share">
</g>
<g id="Lihat_Semua">
</g>
<g id="User">
</g>
<g id="Contact">
</g>
<g id="Location">
</g>
<g id="Play_Podcast">
</g>
<g id="Previous_Blue">
</g>
<g id="Next">
</g>
<g id="Navigasi_Previous">
</g>
<g id="Navigasi_Next">
</g>
<g id="Play_Video">
</g>
<g id="Facebook_1_">
</g>
<g id="Twitter">
</g>
<g id="Instagram_1_">
</g>
<g id="Youtube">
</g>
</svg>
