<?xml version="1.0" encoding="utf-8"?>
<!-- Generator: Adobe Illustrator 23.1.1, SVG Export Plug-In . SVG Version: 6.00 Build 0)  -->
<svg version="1.1" xmlns="http://www.w3.org/2000/svg" xmlns:xlink="http://www.w3.org/1999/xlink" x="0px" y="0px"
	 viewBox="0 0 48 48" enable-background="new 0 0 48 48" xml:space="preserve">
<g id="Icon_Grid" display="none">
</g>
<g id="BG" display="none">
	<rect display="inline" fill="#FFFFFF" width="48" height="48"/>
</g>
<g id="Mengenal_Surabaya">
	<g>
		<path fill="#004AE1" d="M9.329,26.682c0.719,0.56,1.34,1.044,1.794,1.649c2.231,2.968,6.083,4.033,9.055,4.033
			c1.593,0,2.935-0.306,3.638-0.79c0.385-0.265,0.631-0.683,0.694-1.178c0.128-1.017-0.325-3.073-5.615-9.19
			c0.286-1.388,0.733-5.084-1.738-7.982c-0.359-0.42-0.99-0.47-1.41-0.112c-0.42,0.358-0.47,0.989-0.112,1.41
			c2.324,2.725,1.22,6.629,1.209,6.666c-0.098,0.329-0.021,0.685,0.206,0.944c4.804,5.498,5.402,7.408,5.469,7.884
			c-1.431,0.657-7.168,0.61-9.798-2.888c-0.615-0.817-1.402-1.431-2.164-2.024c-1.35-1.052-2.739-2.134-3.529-4.551l1.877,0.422
			c0.381,0.085,0.779-0.06,1.016-0.372c0.237-0.312,0.269-0.734,0.083-1.079c-0.014-0.025-1.36-2.534-1.906-4.877
			c-0.74-3.175,0.419-5.396,1.522-6.7c1.887-2.23,5.106-3.607,7.994-3.425c2.745,0.172,4.752,0.666,6.522,1.101
			c3.642,0.896,6.276,1.545,10.969-1.988c2.253-1.696,4.124-1.836,5.04-1.439c0.307,0.132,0.517,0.33,0.536,0.505
			c0.019,0.169-0.149,0.404-0.438,0.615c-0.343,0.25-0.714,0.494-1.091,0.742c-2.171,1.43-5.145,3.389-3.714,7.433
			c0.484,1.372,0.35,1.996,0.351,2.043c-0.008,0.006-0.999,0.163-3.84-2.623c-0.394-0.387-1.028-0.382-1.414,0.014
			c-0.387,0.394-0.381,1.027,0.014,1.414c2.871,2.815,4.925,3.762,6.287,2.895c0.624-0.398,1.517-1.5,0.487-4.41
			c-0.864-2.444,0.551-3.528,2.93-5.095c0.403-0.266,0.801-0.528,1.168-0.795c0.894-0.651,1.35-1.546,1.248-2.454
			c-0.101-0.903-0.748-1.696-1.731-2.12c-1.913-0.825-4.543-0.197-7.035,1.678C29.97,5,28.066,4.53,24.615,3.682
			c-1.76-0.433-3.951-0.972-6.875-1.155c-3.493-0.225-7.372,1.44-9.646,4.129c-1.399,1.654-2.872,4.462-1.943,8.446
			c0.288,1.237,0.762,2.488,1.187,3.471l-1.452-0.327c-0.328-0.076-0.67,0.022-0.912,0.254c-0.242,0.233-0.351,0.571-0.291,0.901
			C5.466,23.673,7.608,25.342,9.329,26.682z"/>
		<path fill="#004AE1" d="M37.006,20.494c-0.04-0.083-0.079-0.186-0.127-0.299c-0.287-0.684-0.768-1.827-1.924-2.418
			c-1.295-0.662-2.122-0.728-2.998-0.798c-1.178-0.095-2.642-0.212-6.423-2.12c-1.557-0.788-3.007,0.139-3.693,1.332
			c-0.193,0.337-0.483,1.02-0.253,1.811c0.125,0.432,0.46,1.045,1.342,1.509c0.936,0.493,3.053,1.954,5.843,4.025
			c-0.838,0.042-1.74-0.071-2.386-0.294c-0.523-0.182-1.091,0.099-1.27,0.621c-0.18,0.522,0.098,1.091,0.62,1.271
			c2.213,0.759,5.769,0.211,5.918,0.188c0.396-0.062,0.717-0.355,0.814-0.744c0.098-0.388-0.046-0.798-0.364-1.04
			c-2.332-1.772-6.503-4.882-8.243-5.797c-0.232-0.122-0.335-0.237-0.354-0.297c-0.016-0.054,0.013-0.163,0.067-0.257
			c0.144-0.251,0.537-0.807,1.057-0.543c4.129,2.085,5.812,2.22,7.164,2.329c0.787,0.063,1.308,0.105,2.248,0.586
			c0.506,0.258,0.774,0.897,0.989,1.411c0.197,0.469,0.367,0.875,0.764,1.126c3.066,1.948,5.216,5.802,5.348,9.591
			c0.087,2.469-0.613,5.991-4.362,8.861c-0.412-0.388-1.005-0.686-1.852-0.842c-0.542-0.102-1.064,0.258-1.165,0.801
			c-0.101,0.543,0.258,1.065,0.802,1.165c0.882,0.163,1.212,0.225,1.059,2.189c-0.043,0.551,0.369,1.032,0.92,1.075
			c0.026,0.002,0.052,0.003,0.078,0.003c0.518,0,0.955-0.398,0.996-0.922c0.042-0.543,0.062-1.1,0-1.629
			c0.054-0.026,0.109-0.045,0.159-0.082c3.606-2.663,5.512-6.459,5.363-10.689C42.989,27.184,40.586,22.838,37.006,20.494z"/>
		<path fill="#004AE1" d="M31.76,41.954c-2.595,0.467-5.571-0.114-8.723-0.731c-5.538-1.083-11.813-2.31-16.521,2.786
			c-0.17,0.185-0.309,0.307-0.415,0.389c-0.028-0.534,0.167-1.624,0.964-2.861c0.896-1.392,3.677-4.564,10.092-3.978
			c2.136,0.196,4.063,0.294,5.79,0.294c4.916,0,8.196-0.796,9.958-2.404c1.004-0.916,1.513-2.076,1.513-3.449c0-0.552-0.447-1-1-1
			s-1,0.448-1,1c0,0.809-0.273,1.436-0.86,1.972c-1.317,1.201-4.851,2.453-14.217,1.596c-7.688-0.709-11.772,3.295-12.936,6.935
			c-0.574,1.795-0.325,3.263,0.649,3.831c0.193,0.112,0.469,0.22,0.816,0.22c0.543,0,1.263-0.264,2.115-1.187
			c3.95-4.277,9.156-3.257,14.669-2.181c3.195,0.625,6.498,1.271,9.462,0.736c0.543-0.098,0.904-0.618,0.807-1.161
			C32.823,42.217,32.309,41.849,31.76,41.954z"/>
	</g>
</g>
<g id="Layanan_Publik">
</g>
<g id="Informasi_Publik">
</g>
<g id="Home">
</g>
<g id="Tentang_Surabaya">
</g>
<g id="Pemerintahan">
</g>
<g id="Ada_Apa_di_Surabaya_x3F_">
</g>
<g id="Pengaduan_Masyarakat">
</g>
<g id="Perizinan">
</g>
<g id="Kesehatan">
</g>
<g id="Pendidikan">
</g>
<g id="Sosial_Masyarakat">
</g>
<g id="Kependudukan">
</g>
<g id="Pemberdayaan_Ekonomi">
</g>
<g id="Whistle_Blower_System">
</g>
<g id="JDIH">
</g>
<g id="PPID">
</g>
<g id="Open_Data">
</g>
<g id="Satu_Peta">
</g>
<g id="Foto">
</g>
<g id="Video">
</g>
<g id="Infografis">
</g>
<g id="Podcast">
</g>
<g id="Berita_Terbaru">
</g>
<g id="Siaran_Pers">
</g>
<g id="Visi__x26__Misi">
</g>
<g id="Struktur_Organisasi_Pemerintahan_Surabaya">
</g>
<g id="Perangkat_Daerah">
</g>
<g id="Profil_Walikota_Surabaya">
</g>
<g id="Alamat_Pemerintah_Kota_Surabaya">
</g>
<g id="Transportasi">
</g>
<g id="Bisnis__x26__Investasi">
</g>
<g id="Akomodasi">
</g>
<g id="Wisata">
</g>
<g id="Media_Center">
</g>
<g id="SSW_Alfa">
</g>
<g id="EHealth">
</g>
<g id="Lawan_Covid">
</g>
<g id="Wadul_Sertifikat_Vaksin">
</g>
<g id="Profil_Sekolah">
</g>
<g id="Rapor_Online">
</g>
<g id="Sistem_Informasi_Aplikasi_Guru">
</g>
<g id="EPemuktakhiran_Data">
</g>
<g id="Klampid">
</g>
<g id="EPeken_Surabaya">
</g>
<g id="Username">
</g>
<g id="Password_1_">
</g>
<g id="Pencarian">
</g>
<g id="Share">
</g>
<g id="Lihat_Semua">
</g>
<g id="User">
</g>
<g id="Contact">
</g>
<g id="Location">
</g>
<g id="Play_Podcast">
</g>
<g id="Previous_Blue">
</g>
<g id="Next">
</g>
<g id="Navigasi_Previous">
</g>
<g id="Navigasi_Next">
</g>
<g id="Play_Video">
</g>
<g id="Facebook_1_">
</g>
<g id="Twitter">
</g>
<g id="Instagram_1_">
</g>
<g id="Youtube">
</g>
</svg>
