<?xml version="1.0" encoding="utf-8"?>
<!-- Generator: Adobe Illustrator 23.1.1, SVG Export Plug-In . SVG Version: 6.00 Build 0)  -->
<svg version="1.1" xmlns="http://www.w3.org/2000/svg" xmlns:xlink="http://www.w3.org/1999/xlink" x="0px" y="0px"
	 viewBox="0 0 48 48" enable-background="new 0 0 48 48" xml:space="preserve">
<g id="Icon_Grid" display="none">
</g>
<g id="BG" display="none">
	<rect display="inline" fill="#FFFFFF" width="48" height="48"/>
</g>
<g id="Mengenal_Surabaya">
</g>
<g id="Layanan_Publik">
</g>
<g id="Informasi_Publik">
</g>
<g id="Home">
</g>
<g id="Tentang_Surabaya">
</g>
<g id="Pemerintahan">
</g>
<g id="Ada_Apa_di_Surabaya_x3F_">
</g>
<g id="Pengaduan_Masyarakat">
</g>
<g id="Perizinan">
</g>
<g id="Kesehatan">
</g>
<g id="Pendidikan">
</g>
<g id="Sosial_Masyarakat">
</g>
<g id="Kependudukan">
</g>
<g id="Pemberdayaan_Ekonomi">
</g>
<g id="Whistle_Blower_System">
</g>
<g id="JDIH">
</g>
<g id="PPID">
</g>
<g id="Open_Data">
</g>
<g id="Satu_Peta">
</g>
<g id="Foto">
</g>
<g id="Video">
</g>
<g id="Infografis">
</g>
<g id="Podcast">
</g>
<g id="Berita_Terbaru">
</g>
<g id="Siaran_Pers">
</g>
<g id="Visi__x26__Misi">
</g>
<g id="Struktur_Organisasi_Pemerintahan_Surabaya">
</g>
<g id="Perangkat_Daerah">
</g>
<g id="Profil_Walikota_Surabaya">
</g>
<g id="Alamat_Pemerintah_Kota_Surabaya">
</g>
<g id="Transportasi">
</g>
<g id="Bisnis__x26__Investasi">
</g>
<g id="Akomodasi">
</g>
<g id="Wisata">
</g>
<g id="Media_Center">
</g>
<g id="SSW_Alfa">
</g>
<g id="EHealth">
</g>
<g id="Lawan_Covid">
</g>
<g id="Wadul_Sertifikat_Vaksin">
</g>
<g id="Profil_Sekolah">
</g>
<g id="Rapor_Online">
</g>
<g id="Sistem_Informasi_Aplikasi_Guru">
</g>
<g id="EPemuktakhiran_Data">
</g>
<g id="Klampid">
</g>
<g id="EPeken_Surabaya">
</g>
<g id="Username">
</g>
<g id="Password_1_">
</g>
<g id="Pencarian">
	<g>
		<path fill="#FDD300" d="M20,8c-1.105,0-2,0.896-2,2s0.895,2,2,2c4.411,0,8,3.589,8,8c0,1.104,0.895,2,2,2c1.104,0,2-0.896,2-2
			C32,13.383,26.617,8,20,8z"/>
		<path fill="#FDD300" d="M47.414,44.586L35.477,32.648C38.301,29.199,40,24.795,40,20C40,8.972,31.028,0,20,0S0,8.972,0,20
			s8.972,20,20,20c4.795,0,9.199-1.699,12.648-4.523l11.938,11.938C44.977,47.805,45.488,48,46,48c0.512,0,1.023-0.195,1.414-0.586
			C48.195,46.633,48.195,45.367,47.414,44.586z M20,36c-8.822,0-16-7.178-16-16S11.178,4,20,4s16,7.178,16,16S28.822,36,20,36z"/>
	</g>
</g>
<g id="Share">
</g>
<g id="Lihat_Semua">
</g>
<g id="User">
</g>
<g id="Contact">
</g>
<g id="Location">
</g>
<g id="Play_Podcast">
</g>
<g id="Previous_Blue">
</g>
<g id="Next">
</g>
<g id="Navigasi_Previous">
</g>
<g id="Navigasi_Next">
</g>
<g id="Play_Video">
</g>
<g id="Facebook_1_">
</g>
<g id="Twitter">
</g>
<g id="Instagram_1_">
</g>
<g id="Youtube">
</g>
</svg>
