<svg width="24" height="24" viewBox="0 0 48 48" fill="none" xmlns="http://www.w3.org/2000/svg">
<g clip-path="url(#clip0_1464_1875)">
<path d="M24 48C37.2548 48 48 37.2548 48 24C48 10.7452 37.2548 0 24 0C10.7452 0 0 10.7452 0 24C0 37.2548 10.7452 48 24 48Z" fill="#003f5a"/>
<path d="M11.1667 37C10.5221 37 10 36.4773 10 35.8333V27.6666C10 21.877 14.7104 17.1665 20.5 17.1665H24.5833V10.1665C24.5833 9.6788 24.8861 9.24304 25.3434 9.07329C25.7996 8.90354 26.3141 9.03479 26.6332 9.40346L37.7165 22.2369C38.0945 22.675 38.0945 23.3236 37.7165 23.7617L27.9894 35.0289C27.9579 35.0657 27.9247 35.1007 27.8885 35.1333C27.4621 35.5615 26.9557 35.9792 26.408 36.3537C26.0516 36.5981 25.5878 36.6243 25.2052 36.4219C24.8225 36.2201 24.5833 35.8222 24.5833 35.39V27.6666H20.5C17.3465 27.6666 14.5319 29.4271 13.1552 32.2598C12.6098 33.3781 12.3333 34.5797 12.3333 35.8333C12.3333 36.4773 11.8107 37 11.1667 37ZM20.5 25.3332H25.75C26.394 25.3332 26.9167 25.8559 26.9167 26.4999V32.695L28.1481 31.2757L35.2916 22.9999L26.9167 13.3025V18.3332C26.9167 18.9772 26.394 19.4999 25.75 19.4999H20.5C15.9967 19.4999 12.3333 23.1632 12.3333 27.6666V29.2212C14.2951 26.7799 17.2584 25.3332 20.5 25.3332Z" fill="#D2B690"/>
</g>
<defs>
<clipPath id="clip0_1464_1875">
<rect width="48" height="48" fill="white"/>
</clipPath>
</defs>
</svg>
