<svg width="579" height="138" viewBox="0 0 579 138" fill="none" xmlns="http://www.w3.org/2000/svg">
<g clip-path="url(#clip0_1408_4046)">
<path d="M30.3273 32.3296C40.4181 32.3296 50.9541 36.0187 59.4126 43.102L48.5798 56.2355C42.7925 52.2512 36.5598 49.5949 30.3273 49.5949C25.5788 49.5949 23.056 51.2182 23.056 53.2841C23.056 56.0879 28.2498 57.5636 34.6308 59.482C46.5023 62.876 61.1933 67.1555 61.1933 82.6501C61.1933 94.7506 51.3993 106.408 33.1469 106.408C21.5721 106.408 9.99732 101.686 0.796875 93.5701L12.8168 80.1415C19.0494 85.7489 25.8754 89.143 32.9983 89.143C39.231 89.143 41.7537 86.6344 41.7537 84.4208C41.7537 81.322 36.4115 79.6987 29.8821 77.7803C18.0107 74.2387 3.46797 69.8117 3.46797 54.7598C3.46797 43.2496 12.8168 32.3296 30.3273 32.3296Z" fill="white"/>
<path d="M130.512 34.543V74.9764C130.512 92.8321 118.047 106.408 99.6457 106.408C81.2449 106.408 68.7798 92.9797 68.7798 74.9764V34.543H88.3678V74.9764C88.3678 82.5023 93.7101 87.6673 99.6457 87.6673C105.73 87.6673 111.072 82.5023 111.072 74.9764V34.543H130.512Z" fill="white"/>
<path d="M170.068 34.543H183.868V53.5792H170.365C164.874 53.5792 160.422 57.8585 160.422 63.4661V104.047H140.983V63.4661C140.983 47.6764 154.041 34.543 170.068 34.543Z" fill="white"/>
<path d="M232.934 104.047H225.959C206.222 104.047 189.75 88.1101 189.75 68.4836C189.75 48.7096 205.776 32.3296 226.107 32.3296C246.14 32.3296 262.167 48.2668 262.167 68.336V104.047H242.578V68.0408C242.578 59.0393 235.307 51.5134 226.107 51.5134C216.906 51.5134 209.339 58.8917 209.339 67.8934C209.339 76.8949 216.758 84.8636 226.107 84.8636H232.934V104.047Z" fill="white"/>
<path d="M303.25 34.543H310.075C329.812 34.543 346.284 50.6279 346.284 70.1067C346.284 90.0284 330.406 106.408 309.927 106.408C289.894 106.408 274.015 90.3236 274.015 70.2543V0.75L293.455 32.3295V70.5495C293.455 79.6986 300.876 87.0771 309.927 87.0771C319.128 87.0771 326.844 79.8462 326.844 70.8445C326.844 61.6954 319.276 53.8743 309.927 53.8743H303.25V34.543Z" fill="white"/>
<path d="M395.384 104.047H388.41C368.673 104.047 352.202 88.1101 352.202 68.4836C352.202 48.7096 368.228 32.3296 388.559 32.3296C408.591 32.3296 424.617 48.2668 424.617 68.336V104.047H405.03V68.0408C405.03 59.0393 397.758 51.5134 388.559 51.5134C379.358 51.5134 371.79 58.8917 371.79 67.8934C371.79 76.8949 379.209 84.8636 388.559 84.8636H395.384V104.047Z" fill="white"/>
<path d="M434.984 75.2716V34.543H454.424V75.2716C454.424 82.7975 459.914 87.9623 465.998 87.9623C472.23 87.9623 477.424 82.7975 477.424 75.2716V34.543H497.012V103.752C497.012 125.444 483.36 137.25 463.178 137.25H0.796875L29.8821 117.919H463.326C471.785 117.919 477.424 112.606 477.424 103.752V103.014C473.565 105.523 468.817 106.851 463.771 106.851C446.557 106.851 434.984 93.4223 434.984 75.2716Z" fill="white"/>
<path d="M549.285 104.047H542.31C522.575 104.047 506.103 88.1101 506.103 68.4836C506.103 48.7096 522.129 32.3296 542.459 32.3296C562.493 32.3296 578.518 48.2668 578.518 68.336V104.047H558.93V68.0408C558.93 59.0393 551.66 51.5134 542.459 51.5134C533.259 51.5134 525.69 58.8917 525.69 67.8934C525.69 76.8949 533.111 84.8636 542.459 84.8636H549.285V104.047Z" fill="white"/>
</g>
<defs>
<clipPath id="clip0_1408_4046">
<rect width="579" height="138" fill="white"/>
</clipPath>
</defs>
</svg>
