<svg width="386" height="92" viewBox="0 0 386 92" fill="none" xmlns="http://www.w3.org/2000/svg">
<path d="M20.2182 21.553C26.9454 21.553 33.9694 24.0124 39.6084 28.7346L32.3865 37.4903C28.5283 34.8341 24.3732 33.0632 20.2182 33.0632C17.0525 33.0632 15.3707 34.1454 15.3707 35.5227C15.3707 37.3919 18.8332 38.3757 23.0872 39.6546C31.0015 41.9173 40.7955 44.7703 40.7955 55.1C40.7955 63.167 34.2662 70.9389 22.0979 70.9389C14.3814 70.9389 6.66488 67.7908 0.53125 62.38L8.54454 53.4276C12.6996 57.1659 17.2503 59.4286 21.9989 59.4286C26.154 59.4286 27.8358 57.7562 27.8358 56.2805C27.8358 54.2146 24.2743 53.1324 19.9214 51.8535C12.0071 49.4924 2.31198 46.5411 2.31198 36.5065C2.31198 28.833 8.54453 21.553 20.2182 21.553Z" fill="white"/>
<path d="M87.008 23.0287V49.9843C87.008 61.8881 78.6979 70.9389 66.4306 70.9389C54.1634 70.9389 45.8533 61.9865 45.8533 49.9843V23.0287H58.912V49.9843C58.912 55.0016 62.4735 58.4449 66.4306 58.4449C70.4868 58.4449 74.0482 55.0016 74.0482 49.9843V23.0287H87.008Z" fill="white"/>
<path d="M113.379 23.0287H122.579V35.7195H113.577C109.916 35.7195 106.948 38.5724 106.948 42.3108V69.3649H93.9887V42.3108C93.9887 31.7843 102.694 23.0287 113.379 23.0287Z" fill="white"/>
<path d="M155.289 69.3649H150.639C137.481 69.3649 126.5 58.74 126.5 45.6557C126.5 32.473 137.184 21.553 150.738 21.553C164.093 21.553 174.778 32.1778 174.778 45.5573V69.3649H161.719V45.3605C161.719 39.3595 156.871 34.3422 150.738 34.3422C144.604 34.3422 139.559 39.2611 139.559 45.2622C139.559 51.2632 144.505 56.5757 150.738 56.5757H155.289V69.3649Z" fill="white"/>
<path d="M202.167 23.0287H206.717C219.875 23.0287 230.856 33.7519 230.856 46.7378C230.856 60.0189 220.271 70.9389 206.618 70.9389C193.263 70.9389 182.677 60.2157 182.677 46.8362V0.5L195.637 21.553V47.033C195.637 53.1324 200.584 58.0514 206.618 58.0514C212.752 58.0514 217.896 53.2308 217.896 47.2297C217.896 41.1303 212.851 35.9162 206.618 35.9162H202.167V23.0287Z" fill="white"/>
<path d="M263.589 69.3649H258.94C245.782 69.3649 234.801 58.74 234.801 45.6557C234.801 32.473 245.485 21.553 259.039 21.553C272.394 21.553 283.078 32.1778 283.078 45.5573V69.3649H270.02V45.3605C270.02 39.3595 265.172 34.3422 259.039 34.3422C252.905 34.3422 247.86 39.2611 247.86 45.2622C247.86 51.2632 252.806 56.5757 259.039 56.5757H263.589V69.3649Z" fill="white"/>
<path d="M289.989 50.1811V23.0287H302.949V50.1811C302.949 55.1984 306.609 58.6416 310.665 58.6416C314.82 58.6416 318.283 55.1984 318.283 50.1811V23.0287H331.341V69.1681C331.341 83.6297 322.24 91.5 308.785 91.5H0.53125L19.9214 78.6124H308.884C314.523 78.6124 318.283 75.0708 318.283 69.1681V68.6762C315.71 70.3486 312.545 71.2341 309.181 71.2341C297.705 71.2341 289.989 62.2816 289.989 50.1811Z" fill="white"/>
<path d="M366.19 69.3649H361.54C348.383 69.3649 337.402 58.74 337.402 45.6557C337.402 32.473 348.086 21.553 361.639 21.553C374.995 21.553 385.679 32.1778 385.679 45.5573V69.3649H372.62V45.3605C372.62 39.3595 367.773 34.3422 361.639 34.3422C355.506 34.3422 350.46 39.2611 350.46 45.2622C350.46 51.2632 355.407 56.5757 361.639 56.5757H366.19V69.3649Z" fill="white"/>
</svg>
