<svg width="34" height="34" viewBox="0 0 34 34" fill="none" xmlns="http://www.w3.org/2000/svg">
<g clip-path="url(#clip0_1384_1584)">
<path d="M32.2042 29.4455C31.8757 30.2903 31.3829 31.0178 30.7258 31.6279C30.1157 32.238 29.4117 32.7074 28.6138 33.0359C27.8629 33.3175 27.0415 33.4818 26.1498 33.5287C25.305 33.5287 24.4602 33.3644 23.6154 33.0359C22.7706 32.7074 22.0431 32.238 21.433 31.6279C20.8229 30.9708 20.3535 30.2434 20.025 29.4455C19.6965 28.6477 19.5087 27.8263 19.4618 26.9815C19.4618 26.0898 19.6495 25.2215 20.025 24.3767C20.5413 23.1565 20.7525 22.1005 20.6586 21.2088C20.6117 20.2701 20.4474 19.4722 20.1658 18.8152C19.8373 18.1112 19.3679 17.501 18.7578 16.9848C19.8373 16.9379 20.9637 17.0082 22.137 17.196C23.1226 17.3837 24.2255 17.7122 25.4458 18.1816C26.6661 18.604 27.8863 19.2845 29.1066 20.2232C32.5796 22.9922 33.6122 26.0663 32.2042 29.4455Z" fill="white"/>
<path d="M0.911963 4.55388C1.24049 3.70908 1.73329 2.98162 2.39036 2.37149C3.00049 1.76136 3.70448 1.29203 4.50235 0.963503C5.25328 0.681902 6.07462 0.517635 6.96635 0.470703C7.81114 0.470703 8.65594 0.63497 9.50074 0.963503C10.3455 1.29203 11.073 1.76136 11.6831 2.37149C12.2932 3.02855 12.7626 3.75602 13.0911 4.55388C13.4196 5.35174 13.6074 6.17307 13.6543 7.01787C13.6543 7.9096 13.4666 8.77786 13.0911 9.62266C12.5748 10.8429 12.3636 11.8989 12.4575 12.7907C12.5044 13.7293 12.6687 14.5272 12.9503 15.1843C13.2788 15.8882 13.7482 16.4984 14.3583 17.0146C13.2788 17.0616 12.1524 16.9912 10.9791 16.8034C9.99355 16.6157 8.89061 16.2872 7.67034 15.8178C6.45008 15.3954 5.22982 14.7149 4.00956 13.7763C0.536498 11.0072 -0.496032 7.93306 0.911963 4.55388Z" fill="white"/>
<path d="M29.0335 1.07993C29.8783 1.40846 30.6057 1.90126 31.2159 2.55832C31.826 3.16845 32.2953 3.87245 32.6239 4.67031C32.9055 5.42124 33.0697 6.24257 33.1167 7.1343C33.1167 7.9791 32.9524 8.82389 32.6239 9.66869C32.2953 10.5135 31.826 11.2409 31.2159 11.8511C30.5588 12.4612 29.8313 12.9305 29.0335 13.2591C28.2356 13.5876 27.4143 13.7753 26.5695 13.8223C25.6777 13.8223 24.8095 13.6345 23.9647 13.2591C22.7444 12.7428 21.6884 12.5316 20.7967 12.6255C19.858 12.6724 19.0602 12.8367 18.4031 13.1183C17.6991 13.4468 17.089 13.9161 16.5727 14.5263C16.5258 13.4468 16.5962 12.3204 16.7839 11.1471C16.9716 10.1615 17.3002 9.05856 17.7695 7.8383C18.1919 6.61804 18.8724 5.39778 19.8111 4.17752C22.5801 0.704467 25.6543 -0.328063 29.0335 1.07993Z" fill="white"/>
<path d="M4.08319 32.6172C3.23839 32.2887 2.51092 31.7959 1.90079 31.1388C1.29066 30.5287 0.821332 29.8247 0.492802 29.0269C0.211201 28.2759 0.0469322 27.4546 0 26.5629C-3.7e-08 25.7181 0.164266 24.8733 0.492802 24.0285C0.821332 23.1837 1.29066 22.4562 1.90079 21.8461C2.55786 21.236 3.28532 20.7666 4.08319 20.4381C4.88105 20.1096 5.70238 19.9218 6.54718 19.8749C7.43891 19.8749 8.30719 20.0626 9.15198 20.4381C10.3722 20.9544 11.4282 21.1656 12.3199 21.0717C13.2586 21.0248 14.0565 20.8605 14.7135 20.5789C15.4175 20.2504 16.0277 19.781 16.5439 19.1709C16.5909 20.2504 16.5205 21.3768 16.3327 22.5501C16.145 23.5357 15.8165 24.6386 15.3471 25.8589C14.9247 27.0791 14.2442 28.2994 13.3055 29.5196C10.5365 32.9927 7.46238 34.0252 4.08319 32.6172Z" fill="white"/>
</g>
<defs>
<clipPath id="clip0_1384_1584">
<rect width="34" height="34" fill="white"/>
</clipPath>
</defs>
</svg>
