<svg width="42" height="34" viewBox="0 0 42 34" fill="none" xmlns="http://www.w3.org/2000/svg">
<g clip-path="url(#clip0_1384_1589)">
<path d="M34.2048 5.74534C35.3848 6.24095 36.4468 6.87815 37.3908 7.65696C38.3348 8.41216 39.1136 9.28537 39.7272 10.2766C40.3644 11.2442 40.8364 12.2944 41.1432 13.4272C41.45 14.56 41.5562 15.7282 41.4618 16.9318L29.7443 12.1882V12.1528C28.5643 11.6808 27.4315 11.0318 26.3459 10.2058C25.2603 9.37977 24.3163 8.44756 23.5139 7.40915C22.7115 6.37075 22.0861 5.26154 21.6377 4.08153C21.1893 2.87792 21.0123 1.67431 21.1067 0.470703L34.2048 5.74534Z" fill="white"/>
<path d="M7.9056 5.74534C6.7256 6.24095 5.66359 6.87815 4.71958 7.65696C3.77557 8.41216 2.99677 9.28537 2.38316 10.2766C1.74596 11.2442 1.27395 12.2944 0.967155 13.4272C0.660353 14.56 0.554152 15.7282 0.648552 16.9318L12.366 12.1882V12.1528C13.546 11.6808 14.6788 11.0318 15.7644 10.2058C16.85 9.37977 17.794 8.44756 18.5965 7.40915C19.3989 6.37075 20.0243 5.26154 20.4727 4.08153C20.9211 2.87792 21.0981 1.67431 21.0037 0.470703L7.9056 5.74534Z" fill="white"/>
<path d="M7.9056 28.251C6.7256 27.7553 5.66359 27.1181 4.71958 26.3393C3.77557 25.5841 2.99677 24.7109 2.38316 23.7197C1.74596 22.7521 1.27395 21.7019 0.967155 20.5691C0.660353 19.4363 0.554152 18.2681 0.648552 17.0645L12.366 21.8081V21.8435C13.546 22.3155 14.6788 22.9645 15.7644 23.7905C16.85 24.6165 17.794 25.5487 18.5965 26.5871C19.3989 27.6255 20.0243 28.7348 20.4727 29.9148C20.9211 31.1184 21.0981 32.322 21.0037 33.5256L7.9056 28.251Z" fill="white"/>
<path d="M34.2048 28.251C35.3848 27.7553 36.4468 27.1181 37.3908 26.3393C38.3348 25.5841 39.1136 24.7109 39.7272 23.7197C40.3644 22.7521 40.8364 21.7019 41.1432 20.5691C41.45 19.4363 41.5562 18.2681 41.4618 17.0645L29.7443 21.8081V21.8435C28.5643 22.3155 27.4315 22.9645 26.3459 23.7905C25.2603 24.6165 24.3163 25.5487 23.5139 26.5871C22.7115 27.6255 22.0861 28.7348 21.6377 29.9148C21.1893 31.1184 21.0123 32.322 21.1067 33.5256L34.2048 28.251Z" fill="white"/>
</g>
<defs>
<clipPath id="clip0_1384_1589">
<rect width="42" height="34" fill="white"/>
</clipPath>
</defs>
</svg>
