<?xml version="1.0" encoding="utf-8"?>
<!-- Generator: Adobe Illustrator 23.1.1, SVG Export Plug-In . SVG Version: 6.00 Build 0)  -->
<svg version="1.1" id="Layer_1" xmlns="http://www.w3.org/2000/svg" xmlns:xlink="http://www.w3.org/1999/xlink" x="0px" y="0px"
	 viewBox="0 0 100 100" enable-background="new 0 0 100 100" xml:space="preserve">
<g>
	<path fill="#474747" d="M44.625,57.723c0.199,0,0.403,0.033,0.602,0.106c0.199,0.081,0.391,0.212,0.574,0.391l3.349,3.524
		c-1.465,1.921-3.304,3.361-5.509,4.338c-2.209,0.977-4.822,1.465-7.841,1.465c-2.767,0-5.245-0.472-7.434-1.416
		c-2.193-0.936-4.053-2.238-5.579-3.898c-1.522-1.66-2.694-3.621-3.512-5.9c-0.814-2.273-1.225-4.746-1.225-7.412
		c0-2.716,0.468-5.212,1.4-7.487c0.936-2.275,2.238-4.238,3.914-5.888c1.672-1.65,3.678-2.934,6.01-3.849
		c2.336-0.918,4.911-1.375,7.727-1.375c1.367,0,2.653,0.12,3.861,0.362s2.34,0.576,3.389,0.999c1.05,0.425,2.014,0.934,2.897,1.526
		c0.883,0.592,1.668,1.247,2.352,1.963l-2.852,3.825c-0.183,0.234-0.399,0.446-0.647,0.637c-0.252,0.191-0.602,0.287-1.05,0.287
		c-0.301,0-0.586-0.065-0.85-0.199c-0.269-0.132-0.549-0.295-0.85-0.488c-0.301-0.191-0.631-0.399-0.989-0.625
		c-0.358-0.224-0.781-0.433-1.274-0.625s-1.066-0.354-1.725-0.488c-0.659-0.132-1.428-0.199-2.311-0.199
		c-1.534,0-2.934,0.271-4.203,0.812c-1.265,0.543-2.352,1.318-3.259,2.325c-0.911,1.009-1.619,2.23-2.128,3.662
		c-0.509,1.434-0.761,3.044-0.761,4.826c0,1.868,0.252,3.524,0.761,4.976c0.509,1.451,1.2,2.671,2.075,3.664
		c0.875,0.993,1.896,1.742,3.064,2.262c1.168,0.513,2.417,0.773,3.752,0.773c0.765,0,1.465-0.041,2.1-0.114
		c0.631-0.073,1.221-0.203,1.762-0.391c0.541-0.179,1.058-0.415,1.55-0.708c0.492-0.293,0.985-0.651,1.485-1.09
		c0.199-0.163,0.419-0.301,0.651-0.407C44.132,57.772,44.377,57.723,44.625,57.723z"/>
	<path fill="#474747" d="M77.474,57.723c0.199,0,0.403,0.033,0.602,0.106c0.199,0.081,0.391,0.212,0.574,0.391l3.349,3.524
		c-1.465,1.921-3.304,3.361-5.509,4.338c-2.209,0.977-4.822,1.465-7.841,1.465c-2.767,0-5.245-0.472-7.434-1.416
		c-2.193-0.936-4.053-2.238-5.579-3.898c-1.522-1.66-2.694-3.621-3.512-5.9c-0.814-2.273-1.225-4.746-1.225-7.412
		c0-2.716,0.468-5.212,1.4-7.487c0.936-2.275,2.238-4.238,3.914-5.888c1.672-1.65,3.678-2.934,6.01-3.849
		c2.336-0.918,4.911-1.375,7.727-1.375c1.367,0,2.653,0.12,3.861,0.362s2.34,0.576,3.389,0.999c1.05,0.425,2.014,0.934,2.897,1.526
		c0.883,0.592,1.668,1.247,2.352,1.963l-2.852,3.825c-0.183,0.234-0.399,0.446-0.647,0.637c-0.252,0.191-0.602,0.287-1.05,0.287
		c-0.301,0-0.586-0.065-0.85-0.199c-0.269-0.132-0.549-0.295-0.85-0.488c-0.301-0.191-0.631-0.399-0.989-0.625
		c-0.358-0.224-0.781-0.433-1.274-0.625s-1.066-0.354-1.725-0.488c-0.659-0.132-1.428-0.199-2.311-0.199
		c-1.534,0-2.934,0.271-4.203,0.812c-1.265,0.543-2.352,1.318-3.259,2.325c-0.911,1.009-1.619,2.23-2.128,3.662
		c-0.509,1.434-0.761,3.044-0.761,4.826c0,1.868,0.252,3.524,0.761,4.976c0.509,1.451,1.2,2.671,2.075,3.664
		c0.875,0.993,1.896,1.742,3.064,2.262c1.168,0.513,2.417,0.773,3.752,0.773c0.765,0,1.465-0.041,2.1-0.114
		c0.631-0.073,1.221-0.203,1.762-0.391c0.541-0.179,1.058-0.415,1.55-0.708c0.492-0.293,0.985-0.651,1.485-1.09
		c0.199-0.163,0.419-0.301,0.651-0.407C76.982,57.772,77.226,57.723,77.474,57.723z"/>
</g>
<g>
	<path fill="#474747" d="M50,100C22.43,100,0,77.572,0,50C0,22.43,22.43,0,50,0c27.572,0,50,22.43,50,50
		C100,77.572,77.572,100,50,100z M50,8.333C27.024,8.333,8.333,27.024,8.333,50c0,22.974,18.691,41.667,41.667,41.667
		c22.974,0,41.667-18.693,41.667-41.667C91.667,27.024,72.974,8.333,50,8.333z"/>
</g>
</svg>
