<svg width="26" height="30" viewBox="0 0 26 30" fill="none" xmlns="http://www.w3.org/2000/svg">
<path d="M22.1161 6.01304C20.5102 4.95945 19.3515 3.27312 18.9899 1.30855C18.9118 0.884202 18.8684 0.447049 18.8684 0H13.7431L13.7344 20.6696C13.6488 22.9846 11.7554 24.8421 9.43451 24.8421C8.71314 24.8421 8.034 24.661 7.43584 24.3438C6.06426 23.6179 5.12538 22.1714 5.12538 20.5072C5.12538 18.1165 7.05867 16.1712 9.43393 16.1712C9.87763 16.1712 10.3028 16.2451 10.7049 16.3714V11.1064C10.2884 11.0487 9.86548 11.0138 9.43393 11.0138C4.23219 11.0138 0 15.2718 0 20.5072C0 23.7186 1.5943 26.561 4.02799 28.2793C5.55982 29.3626 7.42427 30 9.43451 30C14.6368 30 18.8684 25.7414 18.8684 20.5072V10.0254C20.8787 11.4772 23.3419 12.3328 26 12.3328V7.1749C24.5683 7.1749 23.2348 6.74706 22.1161 6.01304Z" fill="white"/>
</svg>
