<?xml version="1.0" encoding="utf-8"?>
<!-- Generator: Adobe Illustrator 23.1.1, SVG Export Plug-In . SVG Version: 6.00 Build 0)  -->
<svg version="1.1" xmlns="http://www.w3.org/2000/svg" xmlns:xlink="http://www.w3.org/1999/xlink" x="0px" y="0px"
	 viewBox="0 0 48 48" enable-background="new 0 0 48 48" xml:space="preserve">
<g id="Icon_Grid" display="none">
</g>
<g id="BG" display="none">
	<rect display="inline" fill="#FFFFFF" width="48" height="48"/>
</g>
<g id="Mengenal_Surabaya">
</g>
<g id="Layanan_Publik">
</g>
<g id="Informasi_Publik">
</g>
<g id="Home">
</g>
<g id="Tentang_Surabaya">
</g>
<g id="Pemerintahan">
</g>
<g id="Ada_Apa_di_Surabaya_x3F_">
</g>
<g id="Pengaduan_Masyarakat">
</g>
<g id="Perizinan">
</g>
<g id="Kesehatan">
</g>
<g id="Pendidikan">
</g>
<g id="Sosial_Masyarakat">
</g>
<g id="Kependudukan">
</g>
<g id="Pemberdayaan_Ekonomi">
</g>
<g id="Whistle_Blower_System">
</g>
<g id="JDIH">
</g>
<g id="PPID">
</g>
<g id="Open_Data">
</g>
<g id="Satu_Peta">
</g>
<g id="Foto">
</g>
<g id="Video">
</g>
<g id="Infografis">
</g>
<g id="Podcast">
</g>
<g id="Berita_Terbaru">
</g>
<g id="Siaran_Pers">
</g>
<g id="Visi__x26__Misi">
</g>
<g id="Struktur_Organisasi_Pemerintahan_Surabaya">
</g>
<g id="Perangkat_Daerah">
</g>
<g id="Profil_Walikota_Surabaya">
</g>
<g id="Alamat_Pemerintah_Kota_Surabaya">
</g>
<g id="Transportasi">
</g>
<g id="Bisnis__x26__Investasi">
</g>
<g id="Akomodasi">
</g>
<g id="Wisata">
</g>
<g id="Media_Center">
</g>
<g id="SSW_Alfa">
</g>
<g id="EHealth">
</g>
<g id="Lawan_Covid">
</g>
<g id="Wadul_Sertifikat_Vaksin">
</g>
<g id="Profil_Sekolah">
</g>
<g id="Rapor_Online">
</g>
<g id="Sistem_Informasi_Aplikasi_Guru">
</g>
<g id="EPemuktakhiran_Data">
</g>
<g id="Klampid">
</g>
<g id="EPeken_Surabaya">
</g>
<g id="Username">
</g>
<g id="Password_1_">
</g>
<g id="Pencarian">
</g>
<g id="Share">
</g>
<g id="Lihat_Semua">
</g>
<g id="User">
</g>
<g id="Contact">
</g>
<g id="Location">
</g>
<g id="Play_Podcast">
</g>
<g id="Previous_Blue">
</g>
<g id="Next">
</g>
<g id="Navigasi_Previous">
</g>
<g id="Navigasi_Next">
</g>
<g id="Play_Video">
</g>
<g id="Facebook_1_">
</g>
<g id="Twitter">
	<path fill="#004AE1" d="M43.062,14.075c0.032,0.54,0.048,1.084,0.048,1.63c0,15.434-12.513,27.945-27.946,27.945
		C9.575,43.65,4.368,42.008,0,39.184c0.932,0.159,1.893,0.242,2.872,0.242c4.37,0,8.354-1.647,11.368-4.354
		c-4.378-0.025-8.084-2.887-9.374-6.839c0.758,0.187,1.552,0.285,2.367,0.285c0.872,0,1.718-0.112,2.523-0.323
		c-2.082-0.346-3.946-1.338-5.378-2.765c-1.802-1.795-2.917-4.281-2.917-7.028c0-0.073,0-0.146,0.004-0.22
		c1.368,0.809,2.948,1.301,4.636,1.37c0.036,0.002,0.071,0.002,0.106,0.002c-0.025-0.016-0.05-0.03-0.075-0.048
		c-1.785-1.131-3.183-2.815-3.953-4.814c-0.428-1.108-0.663-2.314-0.663-3.573c0-0.22,0.007-0.44,0.021-0.656
		C1.645,8.814,2.153,7.275,2.97,5.944c0.731,1.024,1.536,1.992,2.412,2.894C5.708,9.177,6.045,9.505,6.39,9.822
		c2.432,2.249,5.311,4.017,8.489,5.162c0.385,0.14,0.775,0.269,1.168,0.388c0.004,0,0.006,0.003,0.011,0.003
		c0.209,0.066,0.419,0.127,0.63,0.184c0.33,0.095,0.665,0.177,0.999,0.254c0.009,0.002,0.018,0.005,0.023,0.007
		c0.313,0.071,0.626,0.138,0.943,0.196c0.43,0.084,0.863,0.155,1.302,0.211c0.38,0.055,0.762,0.098,1.147,0.13
		c0.745,0.069,1.5,0.104,2.262,0.104c0.087,0,0.173,0,0.257-0.004c-0.203-0.779-0.311-1.595-0.311-2.437
		c0-1.725,0.451-3.345,1.243-4.748c0.002-0.004,0.004-0.008,0.006-0.013c1.226-2.16,3.257-3.803,5.686-4.517
		c0.078-0.023,0.155-0.045,0.233-0.064c0.796-0.214,1.636-0.328,2.501-0.328c2.803,0,5.328,1.193,7.093,3.099
		c0.581-0.058,1.15-0.151,1.707-0.28c0.462-0.108,0.915-0.237,1.357-0.394c1.341-0.461,2.586-1.13,3.694-1.97
		c-0.871,2.26-2.337,4.226-4.205,5.704c-0.055,0.045-0.11,0.088-0.166,0.129c0.062-0.004,0.125-0.011,0.188-0.018
		c1.931-0.177,3.744-0.762,5.352-1.67C46.843,11.069,45.134,12.844,43.062,14.075z"/>
</g>
<g id="Instagram_1_">
</g>
<g id="Youtube">
</g>
</svg>
