<?xml version="1.0" encoding="utf-8"?>
<!-- Generator: Adobe Illustrator 23.1.1, SVG Export Plug-In . SVG Version: 6.00 Build 0)  -->
<svg version="1.1" xmlns="http://www.w3.org/2000/svg" xmlns:xlink="http://www.w3.org/1999/xlink" x="0px" y="0px"
	 viewBox="0 0 48 48" enable-background="new 0 0 48 48" xml:space="preserve">
<g id="Icon_Grid" display="none">
</g>
<g id="BG" display="none">
	<rect display="inline" fill="#FFFFFF" width="48" height="48"/>
</g>
<g id="Mengenal_Surabaya">
</g>
<g id="Layanan_Publik">
</g>
<g id="Informasi_Publik">
</g>
<g id="Home">
</g>
<g id="Tentang_Surabaya">
</g>
<g id="Pemerintahan">
</g>
<g id="Ada_Apa_di_Surabaya_x3F_">
</g>
<g id="Pengaduan_Masyarakat">
</g>
<g id="Perizinan">
</g>
<g id="Kesehatan">
</g>
<g id="Pendidikan">
</g>
<g id="Sosial_Masyarakat">
</g>
<g id="Kependudukan">
</g>
<g id="Pemberdayaan_Ekonomi">
</g>
<g id="Whistle_Blower_System">
</g>
<g id="JDIH">
</g>
<g id="PPID">
</g>
<g id="Open_Data">
</g>
<g id="Satu_Peta">
</g>
<g id="Foto">
</g>
<g id="Video">
</g>
<g id="Infografis">
</g>
<g id="Podcast">
</g>
<g id="Berita_Terbaru">
</g>
<g id="Siaran_Pers">
</g>
<g id="Visi__x26__Misi">
</g>
<g id="Struktur_Organisasi_Pemerintahan_Surabaya">
</g>
<g id="Perangkat_Daerah">
</g>
<g id="Profil_Walikota_Surabaya">
</g>
<g id="Alamat_Pemerintah_Kota_Surabaya">
</g>
<g id="Transportasi">
</g>
<g id="Bisnis__x26__Investasi">
</g>
<g id="Akomodasi">
</g>
<g id="Wisata">
</g>
<g id="Media_Center">
</g>
<g id="SSW_Alfa">
</g>
<g id="EHealth">
</g>
<g id="Lawan_Covid">
</g>
<g id="Wadul_Sertifikat_Vaksin">
</g>
<g id="Profil_Sekolah">
</g>
<g id="Rapor_Online">
</g>
<g id="Sistem_Informasi_Aplikasi_Guru">
</g>
<g id="EPemuktakhiran_Data">
</g>
<g id="Klampid">
</g>
<g id="EPeken_Surabaya">
</g>
<g id="Username">
</g>
<g id="Password_1_">
</g>
<g id="Pencarian">
</g>
<g id="Share">
</g>
<g id="Lihat_Semua">
</g>
<g id="User">
</g>
<g id="Contact">
	<g>
		<path fill="#004AE1" d="M24,48C10.767,48,0,37.233,0,24S10.767,0,24,0c13.233,0,24,10.767,24,24S37.233,48,24,48z M24,2
			C11.869,2,2,11.869,2,24s9.869,22,22,22c12.131,0,22-9.869,22-22S36.131,2,24,2z"/>
		<path fill="none" stroke="#004AE1" stroke-width="2" stroke-linecap="round" stroke-linejoin="round" stroke-miterlimit="10" d="
			M15.893,11.976c0.224,0,0.449,0.022,0.663,0.055l0.018,0.005l2.342,1.103l0.011,0.009v0.013c-0.281,1.071-0.441,2.203-0.442,3.367
			c0.001,1.162,0.161,2.296,0.442,3.365v0.014l-0.011,0.004l-2.341,1.106l-0.02,0.008c1.498,4.998,5.427,8.936,10.414,10.436
			l0.009-0.019l1.104-2.345l0.008-0.017h0.01c1.069,0.286,2.196,0.444,3.362,0.445c1.158-0.002,2.289-0.16,3.355-0.445h0.017
			l0.007,0.016l1.102,2.346l0.004,0.019C35.983,31.676,36,31.896,36,32.122c0.001,1.54-0.762,2.9-1.927,3.718
			c-0.854,0.125-1.724,0.185-2.612,0.185c-0.888,0-1.758-0.06-2.619-0.185c-8.653-1.155-15.506-8.02-16.663-16.693
			C12.059,18.288,12,17.418,12,16.527c0-0.892,0.059-1.762,0.18-2.62C12.996,12.738,14.355,11.975,15.893,11.976z"/>
	</g>
</g>
<g id="Location">
</g>
<g id="Play_Podcast">
</g>
<g id="Previous_Blue">
</g>
<g id="Next">
</g>
<g id="Navigasi_Previous">
</g>
<g id="Navigasi_Next">
</g>
<g id="Play_Video">
</g>
<g id="Facebook_1_">
</g>
<g id="Twitter">
</g>
<g id="Instagram_1_">
</g>
<g id="Youtube">
</g>
</svg>
