<?xml version="1.0" encoding="utf-8"?>
<!-- Generator: Adobe Illustrator 23.1.1, SVG Export Plug-In . SVG Version: 6.00 Build 0)  -->
<svg version="1.1" xmlns="http://www.w3.org/2000/svg" xmlns:xlink="http://www.w3.org/1999/xlink" x="0px" y="0px"
	 viewBox="0 0 48 48" enable-background="new 0 0 48 48" xml:space="preserve">
<g id="Icon_Grid" display="none">
</g>
<g id="BG" display="none">
	<rect display="inline" fill="#FFFFFF" width="48" height="48"/>
</g>
<g id="Mengenal_Surabaya">
</g>
<g id="Layanan_Publik">
</g>
<g id="Informasi_Publik">
</g>
<g id="Home">
</g>
<g id="Tentang_Surabaya">
</g>
<g id="Pemerintahan">
</g>
<g id="Ada_Apa_di_Surabaya_x3F_">
</g>
<g id="Pengaduan_Masyarakat">
</g>
<g id="Perizinan">
</g>
<g id="Kesehatan">
</g>
<g id="Pendidikan">
</g>
<g id="Sosial_Masyarakat">
</g>
<g id="Kependudukan">
</g>
<g id="Pemberdayaan_Ekonomi">
</g>
<g id="Whistle_Blower_System">
</g>
<g id="JDIH">
</g>
<g id="PPID">
</g>
<g id="Open_Data">
</g>
<g id="Satu_Peta">
</g>
<g id="Foto">
</g>
<g id="Video">
</g>
<g id="Infografis">
</g>
<g id="Podcast">
</g>
<g id="Berita_Terbaru">
</g>
<g id="Siaran_Pers">
</g>
<g id="Visi__x26__Misi">
</g>
<g id="Struktur_Organisasi_Pemerintahan_Surabaya">
</g>
<g id="Perangkat_Daerah">
</g>
<g id="Profil_Walikota_Surabaya">
</g>
<g id="Alamat_Pemerintah_Kota_Surabaya">
</g>
<g id="Transportasi">
</g>
<g id="Bisnis__x26__Investasi">
</g>
<g id="Akomodasi">
</g>
<g id="Wisata">
</g>
<g id="Media_Center">
</g>
<g id="SSW_Alfa">
</g>
<g id="EHealth">
</g>
<g id="Lawan_Covid">
</g>
<g id="Wadul_Sertifikat_Vaksin">
</g>
<g id="Profil_Sekolah">
</g>
<g id="Rapor_Online">
</g>
<g id="Sistem_Informasi_Aplikasi_Guru">
</g>
<g id="EPemuktakhiran_Data">
</g>
<g id="Klampid">
</g>
<g id="EPeken_Surabaya">
</g>
<g id="Username">
</g>
<g id="Password_1_">
</g>
<g id="Pencarian">
</g>
<g id="Share">
</g>
<g id="Lihat_Semua">
</g>
<g id="User">
</g>
<g id="Contact">
</g>
<g id="Location">
	<g>
		<path fill="#004AE1" d="M24,48C10.767,48,0,37.233,0,24S10.767,0,24,0c13.233,0,24,10.767,24,24S37.233,48,24,48z M24,2
			C11.869,2,2,11.869,2,24s9.869,22,22,22c12.131,0,22-9.869,22-22S36.131,2,24,2z"/>
		<g>
			<g>
				<path fill="#004AE1" d="M24,37c-0.266,0-0.52-0.105-0.707-0.293L16.3,29.712c-0.013-0.012-0.024-0.022-0.035-0.033
					c-4.268-4.267-4.268-11.209-0.001-15.475c2.066-2.066,4.813-3.203,7.736-3.203c2.923,0,5.67,1.137,7.736,3.203
					c4.267,4.266,4.267,11.208,0,15.474c-0.011,0.011-0.022,0.022-0.036,0.034l-6.993,6.995C24.519,36.895,24.266,37,24,37z
					 M17.652,28.238c0.013,0.012,0.025,0.023,0.037,0.035L24,34.586l6.31-6.312c0.012-0.012,0.025-0.023,0.037-0.035
					c3.461-3.487,3.453-9.142-0.025-12.62c-1.688-1.688-3.934-2.617-6.322-2.617c-2.389,0-4.634,0.93-6.322,2.617
					C14.2,19.097,14.191,24.75,17.652,28.238z"/>
			</g>
			<g>
				<path fill="#004AE1" d="M24,27.263c-1.422,0-2.759-0.554-3.764-1.559c-2.073-2.075-2.073-5.452,0-7.527
					c1.005-1.005,2.342-1.559,3.764-1.559c1.422,0,2.759,0.554,3.764,1.559c2.073,2.075,2.073,5.452,0,7.527
					C26.759,26.709,25.422,27.263,24,27.263z M24,18.618c-0.888,0-1.723,0.346-2.35,0.973c-1.294,1.296-1.294,3.403,0.001,4.699
					c1.252,1.254,3.444,1.254,4.698,0c1.294-1.296,1.294-3.403-0.001-4.699C25.723,18.964,24.888,18.618,24,18.618z"/>
			</g>
		</g>
	</g>
</g>
<g id="Play_Podcast">
</g>
<g id="Previous_Blue">
</g>
<g id="Next">
</g>
<g id="Navigasi_Previous">
</g>
<g id="Navigasi_Next">
</g>
<g id="Play_Video">
</g>
<g id="Facebook_1_">
</g>
<g id="Twitter">
</g>
<g id="Instagram_1_">
</g>
<g id="Youtube">
</g>
</svg>
