<?xml version="1.0" encoding="utf-8"?>
<!-- Generator: Adobe Illustrator 23.1.1, SVG Export Plug-In . SVG Version: 6.00 Build 0)  -->
<svg version="1.1" xmlns="http://www.w3.org/2000/svg" xmlns:xlink="http://www.w3.org/1999/xlink" x="0px" y="0px"
	 viewBox="0 0 48 48" enable-background="new 0 0 48 48" xml:space="preserve">
<g id="Icon_Grid" display="none">
</g>
<g id="BG" display="none">
	<rect display="inline" fill="#FFFFFF" width="48" height="48"/>
</g>
<g id="Mengenal_Surabaya">
</g>
<g id="Layanan_Publik">
</g>
<g id="Informasi_Publik">
</g>
<g id="Home">
</g>
<g id="Tentang_Surabaya">
</g>
<g id="Pemerintahan">
</g>
<g id="Ada_Apa_di_Surabaya_x3F_">
</g>
<g id="Pengaduan_Masyarakat">
</g>
<g id="Perizinan">
</g>
<g id="Kesehatan">
</g>
<g id="Pendidikan">
</g>
<g id="Sosial_Masyarakat">
</g>
<g id="Kependudukan">
</g>
<g id="Pemberdayaan_Ekonomi">
</g>
<g id="Whistle_Blower_System">
</g>
<g id="JDIH">
</g>
<g id="PPID">
</g>
<g id="Open_Data">
</g>
<g id="Satu_Peta">
</g>
<g id="Foto">
</g>
<g id="Video">
</g>
<g id="Infografis">
</g>
<g id="Podcast">
</g>
<g id="Berita_Terbaru">
</g>
<g id="Siaran_Pers">
</g>
<g id="Visi__x26__Misi">
</g>
<g id="Struktur_Organisasi_Pemerintahan_Surabaya">
</g>
<g id="Perangkat_Daerah">
</g>
<g id="Profil_Walikota_Surabaya">
</g>
<g id="Alamat_Pemerintah_Kota_Surabaya">
</g>
<g id="Transportasi">
</g>
<g id="Bisnis__x26__Investasi">
</g>
<g id="Akomodasi">
</g>
<g id="Wisata">
</g>
<g id="Media_Center">
</g>
<g id="SSW_Alfa">
</g>
<g id="EHealth">
</g>
<g id="Lawan_Covid">
</g>
<g id="Wadul_Sertifikat_Vaksin">
</g>
<g id="Profil_Sekolah">
</g>
<g id="Rapor_Online">
</g>
<g id="Sistem_Informasi_Aplikasi_Guru">
</g>
<g id="EPemuktakhiran_Data">
</g>
<g id="Klampid">
</g>
<g id="EPeken_Surabaya">
</g>
<g id="Username">
</g>
<g id="Password_1_">
</g>
<g id="Pencarian">
</g>
<g id="Share">
</g>
<g id="Lihat_Semua">
</g>
<g id="User">
	<g>
		<path fill="#004AE1" d="M29.818,22.13c1.027-1.279,1.646-2.9,1.646-4.665C31.465,13.349,28.116,10,24,10
			c-4.116,0-7.465,3.349-7.465,7.465c0,1.767,0.62,3.39,1.649,4.669c-2.316,1.306-3.806,3.771-3.806,6.498v4.752
			c0,1.442,1.174,2.616,2.617,2.616h14.008c1.443,0,2.617-1.174,2.617-2.616v-4.752C33.621,25.919,32.132,23.438,29.818,22.13z
			 M24,12c3.014,0,5.465,2.451,5.465,5.465c0,3.014-2.451,5.466-5.465,5.466c-3.014,0-5.465-2.452-5.465-5.466
			C18.535,14.451,20.986,12,24,12z M31.621,33.384c0,0.34-0.277,0.616-0.617,0.616H16.996c-0.34,0-0.617-0.276-0.617-0.616v-4.752
			c0-2.218,1.348-4.193,3.374-5.035c1.207,0.839,2.669,1.334,4.247,1.334c1.579,0,3.042-0.496,4.249-1.336
			c2.022,0.844,3.372,2.831,3.372,5.037V33.384z"/>
		<path fill="#004AE1" d="M24,48C10.767,48,0,37.233,0,24S10.767,0,24,0c13.233,0,24,10.767,24,24S37.233,48,24,48z M24,2
			C11.869,2,2,11.869,2,24s9.869,22,22,22c12.131,0,22-9.869,22-22S36.131,2,24,2z"/>
	</g>
</g>
<g id="Contact">
</g>
<g id="Location">
</g>
<g id="Play_Podcast">
</g>
<g id="Previous_Blue">
</g>
<g id="Next">
</g>
<g id="Navigasi_Previous">
</g>
<g id="Navigasi_Next">
</g>
<g id="Play_Video">
</g>
<g id="Facebook_1_">
</g>
<g id="Twitter">
</g>
<g id="Instagram_1_">
</g>
<g id="Youtube">
</g>
</svg>
