<svg width="51" height="50" viewBox="0 0 51 50" fill="none" xmlns="http://www.w3.org/2000/svg">
<path d="M5.52193 31.8823H4.2449C3.17202 31.8823 2.2981 31.0094 2.2981 29.9355V25.2335C2.2981 21.9118 4.37822 18.9796 7.48435 17.8661C8.01871 18.2609 8.5791 18.6233 9.1947 18.9077C9.33636 18.9733 9.48532 19.0035 9.63114 19.0035C10.0249 19.0035 10.4009 18.7796 10.5769 18.3994C10.8196 17.8775 10.5915 17.2588 10.0697 17.0171C7.30832 15.7401 5.52401 12.9517 5.52401 9.91113C5.52401 5.59461 9.03533 2.08326 13.3497 2.08326C14.3143 2.08326 15.2549 2.25722 16.1486 2.59887C16.684 2.80407 17.2881 2.53637 17.4933 1.99785C17.6985 1.46037 17.4298 0.858305 16.8934 0.653103C15.7622 0.219784 14.5695 0 13.3497 0C7.88538 0 3.44076 4.44569 3.44076 9.91113C3.44076 12.2944 4.31052 14.5526 5.80004 16.313C2.41476 17.9515 0.214844 21.3889 0.214844 25.2335V29.9355C0.214844 32.1573 2.02207 33.9655 4.2449 33.9655H5.52193C6.09795 33.9655 6.56356 33.4989 6.56356 32.9239C6.56356 32.3489 6.09691 31.8823 5.52193 31.8823Z" fill="white"/>
<path d="M42.5459 16.313C44.0355 14.5526 44.9052 12.2944 44.9052 9.91113C44.9042 4.44569 40.4596 0 34.9952 0C33.7754 0 32.5838 0.219784 31.4526 0.653103C30.9151 0.859347 30.6464 1.46141 30.8526 1.99785C31.0578 2.53637 31.663 2.80303 32.1974 2.59887C33.089 2.25722 34.0306 2.08326 34.9952 2.08326C39.3106 2.08326 42.822 5.59461 42.822 9.91113C42.822 12.9506 41.0377 15.7401 38.2763 17.0171C37.7545 17.2588 37.5263 17.8775 37.769 18.3994C37.9451 18.7806 38.3211 19.0035 38.7148 19.0035C38.8607 19.0035 39.0096 18.9733 39.1513 18.9077C39.7669 18.6233 40.3273 18.2609 40.8616 17.8661C43.9678 18.9796 46.0489 21.9118 46.0489 25.2335V29.9355C46.0489 31.0094 45.175 31.8823 44.1021 31.8823H42.8251C42.2491 31.8823 41.7835 32.3489 41.7835 32.9239C41.7835 33.4989 42.2491 33.9655 42.8251 33.9655H44.1021C46.325 33.9655 48.1322 32.1573 48.1322 29.9355V25.2335C48.1301 21.3889 45.9302 17.9515 42.5459 16.313Z" fill="white"/>
<path d="M33.6509 23.315C35.8269 20.9901 37.1706 17.8777 37.1706 14.4497C37.1706 7.28223 31.3396 1.45117 24.1732 1.45117C17.0057 1.45117 11.1747 7.28223 11.1747 14.4497C11.1747 17.8798 12.5195 20.9943 14.6985 23.3202C10.1612 25.4337 7.18945 30.0096 7.18945 35.0959V43.8852C7.18945 46.108 8.99667 47.9163 11.2195 47.9163H37.1258C39.3486 47.9163 41.1558 46.108 41.1558 43.8852V35.0959C41.1558 30.0336 38.1799 25.4316 33.6509 23.315ZM24.1721 3.53548C30.1906 3.53548 35.0863 8.43219 35.0863 14.4507C35.0863 20.4693 30.1906 25.365 24.1721 25.365C18.1536 25.365 13.2569 20.4693 13.2569 14.4507C13.2569 8.43115 18.1536 3.53548 24.1721 3.53548ZM39.0726 43.8841C39.0726 44.9581 38.1987 45.832 37.1258 45.832H11.2185C10.1456 45.832 9.27166 44.9581 9.27166 43.8841V35.0948C9.27166 30.5158 12.1372 26.4295 16.4162 24.8546C18.5848 26.4743 21.2629 27.4461 24.1711 27.4461C27.0814 27.4461 29.7625 26.4733 31.9312 24.8504C36.2029 26.4243 39.0705 30.5377 39.0705 35.0948V43.8841H39.0726Z" fill="white"/>
<path d="M24.1722 23.0058C27.4929 23.0058 30.1959 20.3038 30.1959 16.983C30.1959 16.4081 29.7303 15.9414 29.1543 15.9414C28.5782 15.9414 28.1126 16.4081 28.1126 16.983C28.1126 19.1548 26.345 20.9225 24.1722 20.9225C21.9993 20.9225 20.2317 19.1548 20.2317 16.983C20.2317 16.4081 19.7661 15.9414 19.1901 15.9414C18.614 15.9414 18.1484 16.4081 18.1484 16.983C18.1484 20.3038 20.8504 23.0058 24.1722 23.0058Z" fill="white"/>
</svg>
