<svg width="51" height="50" viewBox="0 0 51 50" fill="none" xmlns="http://www.w3.org/2000/svg">
<path d="M24.1724 18.9462C27.4932 18.9462 30.1963 16.2441 30.1963 12.9223C30.1963 9.60143 27.4932 6.90039 24.1724 6.90039C20.8505 6.90039 18.1484 9.60143 18.1484 12.9223C18.1484 16.2431 20.8505 18.9462 24.1724 18.9462ZM24.1724 8.98268C26.3453 8.98268 28.113 10.7493 28.113 12.9212C28.113 15.0941 26.3453 16.8618 24.1724 16.8618C21.9995 16.8618 20.2318 15.0941 20.2318 12.9212C20.2318 10.7493 21.9995 8.98268 24.1724 8.98268Z" fill="white"/>
<path d="M13.2196 19.7521C13.2258 19.7677 13.2331 19.7823 13.2383 19.7969C15.7946 25.1021 21.5393 32.9708 24.2383 32.9708C27.4945 32.9708 33.3184 24.5333 35.6549 18.8458C36.6101 16.526 37.0945 14.5333 37.0945 12.9208C37.0945 5.79583 31.2987 0 24.1737 0C17.0487 0 11.2529 5.79583 11.2529 12.9208C11.2529 14.7333 11.9165 17.0354 13.1967 19.699C13.2029 19.7156 13.2113 19.7344 13.2196 19.7521ZM24.1737 2.08333C30.1497 2.08333 35.0111 6.94479 35.0111 12.9208C35.0111 14.2406 34.5674 16.0156 33.7288 18.0531C30.9112 24.9115 25.681 30.826 24.2601 30.8865C23.0174 30.6219 18.0373 24.951 15.1206 18.899C15.1154 18.8865 15.1092 18.874 15.1029 18.8615C13.9477 16.4521 13.3363 14.3969 13.3363 12.9198C13.3363 6.94479 18.1977 2.08333 24.1737 2.08333Z" fill="white"/>
<path d="M48.0981 46.6118L47.6408 44.8598C47.6325 44.841 47.6356 44.8202 47.6273 44.8025L45.9887 38.5243L42.6888 25.8743C42.6877 25.8712 42.6888 25.8681 42.6877 25.866L42.12 23.6941C42.0294 23.3504 41.7742 23.0848 41.4523 22.9733C41.345 22.9358 41.2304 22.916 41.1127 22.916H37.8742H35.1336C34.5575 22.916 34.0919 23.3827 34.0919 23.9577C34.0919 24.5327 34.5575 24.9993 35.1336 24.9993H35.3596L22.6774 37.6806L9.99935 24.9993H13.2139C13.79 24.9993 14.2556 24.5327 14.2556 23.9577C14.2556 23.3827 13.79 22.916 13.2139 22.916H7.48478H7.23479C6.76083 22.916 6.34625 23.2358 6.22646 23.6952L5.04105 28.2389L0.409823 45.99L0.248366 46.6108C0.207741 46.766 0.204616 46.9285 0.235866 47.0816C0.267116 47.2358 0.333782 47.3827 0.43274 47.5108C0.628572 47.766 0.933779 47.916 1.25669 47.916H4.02647H24.4211H30.4003H47.0898C47.4127 47.916 47.7169 47.766 47.9137 47.5108C48.1106 47.2556 48.1793 46.9233 48.0981 46.6118ZM42.5648 33.6535L39.0961 30.1858L41.1294 28.1525L42.5648 33.6535ZM6.59833 30.5233L9.74623 33.6723L4.37543 39.0431L6.59833 30.5233ZM6.61396 45.8327L14.415 38.3389L21.9066 45.8327H6.61396ZM24.8524 45.8327L15.165 36.1431C14.7629 35.7421 14.115 35.7348 13.7077 36.1285L3.60772 45.8327H2.60564L3.33897 43.0275L11.9556 34.4098C12.3629 34.0025 12.3629 33.3441 11.9556 32.9368L7.2077 28.1868L7.83478 25.7816L21.941 39.89C22.1368 40.0858 22.4003 40.1952 22.6774 40.1952C22.9545 40.1952 23.2191 40.0858 23.4139 39.89L38.3044 24.9993H40.3075L40.52 25.816L36.8867 29.4483C36.6909 29.6441 36.5815 29.9087 36.5815 30.1848C36.5815 30.4608 36.6909 30.7254 36.8867 30.9212L43.6023 37.6358L44.269 40.1848L44.7262 41.9389L35.1086 32.6743C34.7013 32.2806 34.0523 32.2858 33.6503 32.6879L24.9326 41.4056C24.5253 41.8129 24.5253 42.4712 24.9326 42.8785L27.8857 45.8327H24.8524ZM30.8326 45.8327L27.142 42.1421L34.4003 34.8837L45.7356 45.8025L45.7419 45.8327H30.8326Z" fill="white"/>
</svg>
