<svg width="51" height="50" viewBox="0 0 51 50" fill="none" xmlns="http://www.w3.org/2000/svg">
<path d="M27.0236 35.7607H22.9451C21.2466 35.7607 19.8649 34.3833 19.8649 32.6914V28.6297C19.8649 28.0827 19.4168 27.6363 18.8677 27.6363H14.7902C13.0907 27.6363 11.709 26.2589 11.709 24.5669V20.5053C11.709 18.8133 13.0907 17.4359 14.7902 17.4359H18.8677C19.4168 17.4359 19.8649 16.9906 19.8649 16.4436V12.3819C19.8649 10.6899 21.2466 9.3125 22.9451 9.3125H27.0236C28.722 9.3125 30.1038 10.6899 30.1038 12.3819V16.4436C30.1038 16.9906 30.5518 17.4359 31.101 17.4359H35.1784C36.8779 17.4359 38.2597 18.8133 38.2597 20.5053V24.5669C38.2597 26.2589 36.8779 27.6363 35.1784 27.6363H31.101C30.5518 27.6363 30.1038 28.0816 30.1038 28.6297V32.6914C30.1038 34.3833 28.722 35.7607 27.0236 35.7607ZM14.7902 19.5119C14.2411 19.5119 13.793 19.9572 13.793 20.5053V24.5669C13.793 25.115 14.2411 25.5603 14.7902 25.5603H18.8677C20.5672 25.5603 21.9489 26.9367 21.9489 28.6297V32.6914C21.9489 33.2394 22.3959 33.6847 22.9451 33.6847H27.0236C27.5727 33.6847 28.0197 33.2394 28.0197 32.6914V28.6297C28.0197 26.9377 29.4014 25.5603 31.101 25.5603H35.1784C35.7275 25.5603 36.1756 25.115 36.1756 24.5669V20.5053C36.1756 19.9572 35.7275 19.5119 35.1784 19.5119H31.101C29.4014 19.5119 28.0197 18.1355 28.0197 16.4436V12.3819C28.0197 11.8338 27.5727 11.3885 27.0236 11.3885H22.9451C22.3959 11.3885 21.9489 11.8338 21.9489 12.3819V16.4436C21.9489 18.1355 20.5672 19.5119 18.8677 19.5119H14.7902Z" fill="white"/>
<path d="M24.9851 48.9625C19.1852 48.9625 0.800813 36.3466 0.505922 7.03037C0.501754 6.64943 0.707032 6.29755 1.04048 6.11278C8.25751 2.11337 16.478 0 24.8121 0C33.2639 0 41.6053 2.17772 48.9338 6.29755C49.2652 6.48439 49.4694 6.83523 49.4642 7.21514C49.0984 36.4027 30.7599 48.9625 24.9851 48.9625ZM2.59934 7.63034C3.14327 36.1826 21.2796 46.8865 24.9851 46.8865C28.6738 46.8865 46.757 36.2304 47.3697 7.80784C40.4841 4.05547 32.6981 2.076 24.8121 2.076C17.0407 2.076 9.37351 3.99526 2.59934 7.63034Z" fill="white"/>
</svg>
