<svg width="51" height="50" viewBox="0 0 51 50" fill="none" xmlns="http://www.w3.org/2000/svg">
<path d="M43.9428 37.4725C46.5834 33.6226 48.1313 28.9685 48.1313 23.9581C48.1313 10.7926 37.4563 0.0770825 24.3074 0.00312497H24.3054C24.2929 0.00208331 24.1856 0 24.1731 0L23.9876 0.00416662H23.9856C10.8617 0.106249 0.214844 10.8103 0.214844 23.9581C0.214844 37.1277 10.895 47.8453 24.0491 47.9131C24.0616 47.9141 24.1606 47.9162 24.1731 47.9162L24.3501 47.912H24.3522C32.4366 47.8516 39.5761 43.7693 43.873 37.5705C43.9 37.5402 43.9198 37.5059 43.9428 37.4725ZM2.35129 24.9997H10.6648C10.7752 27.9643 11.3544 30.8486 12.3669 33.5872C10.0502 34.1069 7.81481 34.783 5.68878 35.6038C3.72941 32.5038 2.53567 28.8851 2.35129 24.9997ZM5.68773 12.3124C7.81481 13.1342 10.0492 13.8092 12.3658 14.329C11.3533 17.0665 10.7752 19.9529 10.6638 22.9164H2.35129C2.53567 19.0311 3.72837 15.4123 5.68773 12.3124ZM45.9948 22.9164H37.6824C37.572 19.9529 36.9938 17.0665 35.9803 14.328C38.2969 13.8082 40.5313 13.1332 42.6573 12.3124C44.6177 15.4123 45.8105 19.0311 45.9948 22.9164ZM35.599 22.9164H25.2147V15.6009C28.1751 15.5457 31.0959 15.2644 33.9188 14.7519C34.9178 17.3509 35.4845 20.0977 35.599 22.9164ZM25.2147 13.5176V3.01039C28.6335 5.76036 31.2855 9.0947 33.0605 12.7822C30.5095 13.2197 27.8814 13.4665 25.2147 13.5176ZM23.1314 13.5176C20.4647 13.4665 17.8356 13.2197 15.2856 12.7822C17.0606 9.09574 19.7127 5.7614 23.1314 3.01143V13.5176ZM23.1314 15.6009V22.9164H12.7471C12.8606 20.0977 13.4273 17.3509 14.4252 14.7519C17.2502 15.2644 20.171 15.5457 23.1314 15.6009ZM12.7471 24.9997H23.1314V32.3143C20.171 32.3705 17.2502 32.6507 14.4273 33.1632C13.4283 30.5664 12.8617 27.8195 12.7471 24.9997ZM23.1314 34.3976V44.9058C19.7137 42.1548 17.0616 38.8204 15.2866 35.133C17.8356 34.6976 20.4647 34.4496 23.1314 34.3976ZM25.2147 34.3976C27.8814 34.4496 30.5105 34.6965 33.0605 35.133C31.2855 38.8204 28.6335 42.1548 25.2147 44.9048V34.3976ZM25.2147 32.3143V24.9997H35.599C35.4855 27.8195 34.9188 30.5664 33.9209 33.1653C31.0959 32.6518 28.1751 32.3705 25.2147 32.3143ZM37.6824 24.9997H45.9948C45.8105 28.8851 44.6177 32.5038 42.6573 35.6048C40.5313 34.783 38.2969 34.1069 35.9803 33.5872C36.9938 30.8486 37.5709 27.9643 37.6824 24.9997ZM41.423 10.5541C39.4313 11.2947 37.3417 11.902 35.1803 12.3707C33.4793 8.65616 30.9553 5.26661 27.7157 2.39685C33.2636 3.30622 38.1074 6.29681 41.423 10.5541ZM20.6314 2.39685C17.3929 5.26661 14.8679 8.65616 13.1669 12.3707C11.0044 11.902 8.91584 11.2957 6.92419 10.5541C10.2398 6.29681 15.0835 3.30622 20.6314 2.39685ZM6.92419 37.3621C8.91584 36.6215 11.0044 36.0142 13.1669 35.5455C14.8679 39.26 17.3908 42.6496 20.6304 45.5193C15.0825 44.61 10.2398 41.6183 6.92419 37.3621ZM27.7157 45.5193C30.9543 42.6496 33.4782 39.26 35.1793 35.5465C37.3417 36.0142 39.4303 36.6215 41.4219 37.3621C38.1074 41.6183 33.2636 44.61 27.7157 45.5193Z" fill="white"/>
</svg>
