<svg width="51" height="50" viewBox="0 0 51 50" fill="none" xmlns="http://www.w3.org/2000/svg">
<path d="M31.1469 42.8436H6.21354C5.70313 42.8436 5.28646 42.428 5.28646 41.9176V38.903C5.28646 38.328 4.82083 37.8613 4.24479 37.8613C3.66875 37.8613 3.20312 38.328 3.20312 38.903V41.9176C3.20312 43.577 4.55312 44.927 6.21354 44.927H31.1469C31.7229 44.927 32.1885 44.4603 32.1885 43.8853C32.1885 43.3103 31.7229 42.8436 31.1469 42.8436Z" fill="white"/>
<path d="M43.0605 16.985V30.934C43.0605 31.509 43.5262 31.9756 44.1022 31.9756C44.6783 31.9756 45.1439 31.509 45.1439 30.934V16.985C45.1439 16.41 44.6783 15.9434 44.1022 15.9434C43.5262 15.9434 43.0605 16.409 43.0605 16.985Z" fill="white"/>
<path d="M4.24479 10.0539C4.82083 10.0539 5.28646 9.58724 5.28646 9.01224V5.9987C5.28646 5.48724 5.70208 5.07161 6.21354 5.07161H31.1469C31.7229 5.07161 32.1885 4.60495 32.1885 4.02995C32.1885 3.45495 31.7229 2.98828 31.1469 2.98828H6.21354C4.55312 2.98828 3.20312 4.33828 3.20312 5.9987V9.01224C3.20312 9.58828 3.66875 10.0539 4.24479 10.0539Z" fill="white"/>
<path d="M41.1124 33.8125L40.9343 33.8146C39.0634 33.8615 37.3228 34.6365 36.0321 35.9969L31.6237 32.8802C33.2363 30.2833 34.1842 27.2323 34.1842 23.9573C34.1842 20.6823 33.2373 17.6323 31.6248 15.0354L36.053 11.9042C37.3363 13.2531 39.1353 14.1031 41.1114 14.1031L41.2885 14.101C43.1645 14.0542 44.9094 13.276 46.2011 11.9104C47.4907 10.5458 48.1761 8.75833 48.1292 6.87708C48.0334 3.08542 44.8875 0 41.1124 0L40.9343 0.00208333C39.0593 0.0489583 37.3144 0.827083 36.0217 2.19271C34.7311 3.55729 34.0456 5.34583 34.0936 7.22708C34.1196 8.29375 34.3946 9.30104 34.8509 10.2031L30.4279 13.3313C27.3122 9.46042 22.5434 6.97396 17.1995 6.97396C7.83373 6.97396 0.214844 14.5938 0.214844 23.9583C0.214844 33.3229 7.83373 40.9427 17.1995 40.9427C21.8131 40.9427 25.9965 39.0885 29.0612 36.0927C29.0737 36.0792 29.0883 36.0708 29.1008 36.0563C29.5716 35.5927 30.0122 35.101 30.4268 34.5865L34.8342 37.701C34.3217 38.724 34.0654 39.8635 34.0946 41.0396C34.1883 44.8313 37.3342 47.9167 41.1093 47.9167L41.2885 47.9146C43.1645 47.8677 44.9094 47.0896 46.2011 45.724C47.4907 44.3594 48.1761 42.5719 48.1292 40.6896C48.0334 36.8979 44.8865 33.8125 41.1124 33.8125ZM37.5353 3.625C38.4436 2.66458 39.6697 2.11771 40.9864 2.08438L41.1124 2.08333C43.7666 2.08333 45.9792 4.25729 46.0448 6.92917C46.0781 8.25729 45.5958 9.51771 44.6865 10.4792C43.7791 11.4385 42.5531 11.9865 41.2364 12.0198L41.1114 12.0208C38.4561 12.0208 36.2426 9.84792 36.178 7.17604C36.1425 5.84792 36.6259 4.58646 37.5353 3.625ZM17.1995 9.05729C25.4163 9.05729 32.1008 15.7417 32.1008 23.9583C32.1008 27.4052 30.9133 30.574 28.9403 33.101C28.2101 30.7094 26.5632 28.6938 24.3205 27.5281C25.7288 25.8865 26.5851 23.7583 26.5851 21.4302C26.5851 16.2552 22.3746 12.0448 17.1995 12.0448C12.0234 12.0448 7.81185 16.2552 7.81185 21.4302C7.81185 23.7521 8.66395 25.876 10.0671 27.5167C7.81914 28.6833 6.18161 30.7042 5.45973 33.1031C3.48678 30.576 2.29821 27.4063 2.29821 23.9583C2.29821 15.7417 8.9827 9.05729 17.1995 9.05729ZM9.89522 21.4313C9.89522 17.4052 13.1713 14.1292 17.1995 14.1292C21.2256 14.1292 24.5017 17.4052 24.5017 21.4313C24.5017 25.4583 21.2256 28.7344 17.1995 28.7344C13.1713 28.7333 9.89522 25.4583 9.89522 21.4313ZM7.19101 34.9656C7.50143 32.2958 9.23271 30.0385 11.7442 29.0552C13.2838 30.1594 15.1641 30.8167 17.1985 30.8167C19.2329 30.8167 21.1121 30.1594 22.6506 29.0552C25.1528 30.0344 26.8893 32.3021 27.2143 34.9583C24.5653 37.3729 21.0569 38.8594 17.1985 38.8594C13.3442 38.8594 9.83897 37.376 7.19101 34.9656ZM44.6865 44.2917C43.7781 45.251 42.5531 45.799 41.2353 45.8323L41.1093 45.8333C38.4551 45.8333 36.2426 43.6604 36.178 40.9885C36.1436 39.6615 36.6269 38.4 37.5363 37.4385C38.4447 36.4781 39.6707 35.9313 40.9874 35.8979L41.1124 35.8969C43.7666 35.8969 45.9792 38.0708 46.0448 40.7427C46.0781 42.0698 45.5958 43.3302 44.6865 44.2917Z" fill="white"/>
</svg>
