<svg width="51" height="50" viewBox="0 0 51 50" fill="none" xmlns="http://www.w3.org/2000/svg">
<path d="M47.1103 22.942H40.1769V1.04364C40.1769 0.767594 40.0675 0.501964 39.8716 0.307168C39.6758 0.112372 39.4123 0.00195312 39.1352 0.00195312L1.25457 0.00299481C0.678521 0.00299481 0.212891 0.469671 0.212891 1.04468V42.9331C0.212891 45.7071 2.46916 47.9644 5.24211 47.9644H43.1227C45.8957 47.9644 48.1519 45.7071 48.1519 42.9331V23.9837C48.1519 23.4087 47.6863 22.942 47.1103 22.942ZM46.0686 42.9331C46.0686 44.5591 44.7467 45.881 43.1227 45.881H5.24211C3.61813 45.881 2.29625 44.5581 2.29625 42.9331V2.08637H38.0935V37.9475C38.0935 40.7215 40.3498 42.9789 43.1227 42.9789C43.6988 42.9789 44.1644 42.5133 44.1644 41.9372C44.1644 41.3611 43.6988 40.8955 43.1227 40.8955C41.4977 40.8955 40.1769 39.5726 40.1769 37.9475V25.0254H46.0686V42.9331Z" fill="white"/>
<path d="M6.23894 15.051H25.1798C25.7558 15.051 26.2214 14.5843 26.2214 14.0093V6.02997C26.2214 5.45496 25.7558 4.98828 25.1798 4.98828H6.23894C5.6629 4.98828 5.19727 5.45496 5.19727 6.02997V14.0093C5.19727 14.5854 5.6629 15.051 6.23894 15.051ZM7.28062 7.0727H24.1381V12.9687H7.28062V7.0727Z" fill="white"/>
<path d="M34.1507 19.9512H6.23894C5.6629 19.9512 5.19727 20.4178 5.19727 20.9929C5.19727 21.5679 5.6629 22.0345 6.23894 22.0345H34.1507C34.7267 22.0345 35.1924 21.5679 35.1924 20.9929C35.1924 20.4178 34.7267 19.9512 34.1507 19.9512Z" fill="white"/>
<path d="M34.1507 25.9336H6.23894C5.6629 25.9336 5.19727 26.4003 5.19727 26.9753C5.19727 27.5503 5.6629 28.017 6.23894 28.017H34.1507C34.7267 28.017 35.1924 27.5503 35.1924 26.9753C35.1924 26.3992 34.7267 25.9336 34.1507 25.9336Z" fill="white"/>
<path d="M24.1829 31.918H6.23894C5.6629 31.918 5.19727 32.3836 5.19727 32.9597C5.19727 33.5357 5.6629 34.0013 6.23894 34.0013H24.1829C24.7589 34.0013 25.2246 33.5357 25.2246 32.9597C25.2246 32.3836 24.7579 31.918 24.1829 31.918Z" fill="white"/>
</svg>
