<svg width="51" height="50" viewBox="0 0 51 50" fill="none" xmlns="http://www.w3.org/2000/svg">
<path d="M39.1151 43.0051C38.9234 42.7665 38.6369 42.6259 38.3316 42.6176C36.8021 42.5769 35.5081 42.0487 34.138 41.4892C31.6468 40.4733 28.8348 39.3335 24.7599 41.6684C20.6851 39.3325 17.8741 40.4723 15.3819 41.4892C14.0108 42.0487 12.7167 42.5769 11.1883 42.6176C10.883 42.6259 10.5965 42.7676 10.4048 43.0051C10.2131 43.2427 10.1349 43.5532 10.1922 43.8532C10.6652 46.3454 10.5402 47.1894 10.4996 47.3707C10.2672 47.7499 10.2985 48.25 10.6069 48.6011C10.8111 48.8356 11.0997 48.9554 11.3883 48.9554C11.6332 48.9554 11.879 48.8699 12.076 48.6959C12.4563 48.3615 12.8813 47.5655 12.4323 44.593C13.8128 44.3794 15.0068 43.8928 16.1696 43.4177C18.717 42.3779 20.7299 41.5548 24.2015 43.7574C24.2442 43.7834 24.2911 43.7886 24.3359 43.8084C24.4099 43.8418 24.4828 43.8793 24.563 43.8949C24.6297 43.9074 24.6943 43.9001 24.7599 43.9001C24.8256 43.9001 24.8912 43.9074 24.9569 43.8949C25.0371 43.8793 25.11 43.8418 25.184 43.8084C25.2288 43.7886 25.2757 43.7834 25.3184 43.7574C28.7879 41.5559 30.8019 42.3779 33.3503 43.4177C34.5131 43.8918 35.7071 44.3794 37.0876 44.593C36.6385 47.5655 37.0626 48.3615 37.4439 48.6959C37.6408 48.8699 37.8867 48.9554 38.1316 48.9554C38.4202 48.9554 38.7088 48.8356 38.914 48.6011C39.2224 48.25 39.2526 47.7499 39.0213 47.3707C38.9807 47.1894 38.8557 46.3454 39.3287 43.8532C39.385 43.5532 39.3079 43.2427 39.1151 43.0051Z" fill="white"/>
<path d="M48.2072 19.9964C47.9218 19.5567 47.5915 19.1243 47.2508 18.6794C46.285 17.4188 45.2858 16.1143 45.0701 14.1149C45.0263 13.7044 44.743 13.3585 44.3491 13.2335C43.9563 13.1064 43.525 13.2283 43.252 13.5388C41.5433 15.4819 42.2747 18.047 42.8634 20.1079C43.2082 21.3175 43.599 22.6886 43.1437 23.0356C42.6915 23.3805 40.4587 22.2344 39.2595 21.6176C36.4662 20.1808 33.304 18.5544 31.4318 20.7601C29.6012 22.9168 30.4242 24.911 30.9171 26.1029C31.0483 26.4228 31.2473 26.9062 31.2296 27.0354C31.039 27.2261 30.8254 27.273 30.5701 27.1823C29.7001 26.8718 28.5426 25.085 28.1404 21.0706C27.4674 14.3452 25.8962 12.7063 25.3617 12.3375C25.3565 12.3343 25.3502 12.3302 25.345 12.326C25.3357 12.3197 25.3231 12.3104 25.3159 12.3052C25.2711 12.277 25.2179 12.2708 25.17 12.2489C25.1012 12.2187 25.0356 12.1822 24.9616 12.1687C24.5407 12.077 24.0812 12.2281 23.8426 12.6042C23.8395 12.6094 23.8395 12.6146 23.8364 12.6198C23.1508 13.3491 21.9453 15.4058 21.3786 21.0706C20.9764 25.085 19.8188 26.8718 18.9489 27.1823C18.6957 27.274 18.4811 27.2261 18.2925 27.0583C18.2706 26.9073 18.4706 26.4238 18.6019 26.104C19.0947 24.912 19.9178 22.9168 18.0872 20.7611C16.216 18.5575 13.0507 20.1829 10.2595 21.6186C9.06131 22.2344 6.82646 23.3805 6.37532 23.0366C5.91897 22.6897 6.31072 21.3196 6.65559 20.1089C7.24321 18.0481 7.97566 15.4829 6.26696 13.5398C5.99399 13.2293 5.5616 13.1074 5.16985 13.2345C4.77602 13.3596 4.49262 13.7055 4.44886 14.116C4.23319 16.1154 3.23402 17.4198 2.26818 18.6805C1.92749 19.1254 1.59721 19.5578 1.31173 19.9974C-0.391764 22.6157 0.55219 27.1042 4.46345 35.0069C5.75018 37.6054 7.611 39.2297 9.99381 39.835C10.7106 40.0174 11.4368 40.0955 12.1536 40.0955C15.4096 40.0955 18.4925 38.4827 19.8386 37.671C22.0047 39.5068 23.3581 39.6683 24.7595 39.6683C26.1608 39.6683 27.5142 39.5079 29.6803 37.671C31.0265 38.4827 34.1094 40.0966 37.3653 40.0955C38.0832 40.0955 38.8083 40.0174 39.5252 39.835C41.908 39.2297 43.7677 37.6054 45.0555 35.0069C48.9668 27.1031 49.9107 22.6147 48.2072 19.9964ZM43.1864 34.0807C42.183 36.1061 40.7806 37.3616 39.0178 37.8127C34.9961 38.839 30.2242 35.5477 30.1763 35.5143C29.7762 35.233 29.2313 35.2705 28.8697 35.6029C26.7339 37.5825 25.7295 37.5825 24.7595 37.5825C23.7884 37.5825 22.7841 37.5825 20.6492 35.6029C20.2887 35.2695 19.7428 35.232 19.3427 35.5143C19.2948 35.5477 14.5292 38.8442 10.5012 37.8127C8.73833 37.3626 7.33594 36.1072 6.3326 34.0807C2.92978 27.2115 1.85976 22.9762 3.05794 21.1331C3.31633 20.7361 3.61535 20.3486 3.92271 19.9464C4.24257 19.5296 4.58535 19.0806 4.91563 18.5836C4.83332 18.8993 4.74268 19.2181 4.65203 19.5359C4.12379 21.3873 3.52575 23.4857 5.11359 24.6932C6.616 25.8362 8.84877 24.6849 11.2118 23.4701C13.2112 22.4417 15.6992 21.1654 16.4973 22.1073C17.4569 23.2377 17.1901 24.0598 16.6755 25.308C16.2983 26.2227 15.7815 27.4741 16.8161 28.5076C17.5756 29.2671 18.6342 29.5068 19.649 29.1432C20.817 28.7264 22.8643 27.149 23.4519 21.2758C23.7843 17.948 24.3375 16.0841 24.7543 15.0891C25.1835 16.0945 25.7337 17.9532 26.0671 21.2758C26.6547 27.149 28.702 28.7254 29.87 29.1432C30.8848 29.5047 31.9423 29.2661 32.7029 28.5076C33.7364 27.4741 33.2207 26.2217 32.8435 25.308C32.3288 24.0598 32.0621 23.2377 33.0217 22.1073C33.8187 21.1654 36.3068 22.4417 38.3072 23.4701C40.6692 24.6859 42.903 25.8352 44.4054 24.6932C45.9932 23.4857 45.3952 21.3873 44.8669 19.5359C44.7763 19.2191 44.6857 18.9003 44.6033 18.5836C44.9336 19.0806 45.2764 19.5286 45.5963 19.9464C45.9036 20.3475 46.2026 20.7351 46.461 21.1331C47.6592 22.9762 46.5892 27.2105 43.1864 34.0807Z" fill="white"/>
<path d="M31.2915 44.36C28.2292 43.365 25.9338 44.6612 24.7605 45.4885C23.5873 44.6612 21.2929 43.365 18.2306 44.36C17.6836 44.5372 17.3835 45.1248 17.5607 45.6729C17.7378 46.2189 18.3223 46.521 18.8735 46.3429C21.37 45.5343 23.058 46.8055 23.9645 47.4901L24.1437 47.6234C24.177 47.6484 24.2156 47.6589 24.2521 47.6787C24.2864 47.6985 24.3177 47.7151 24.3542 47.7308C24.4855 47.7881 24.622 47.8266 24.7616 47.8266H24.7637C24.9033 47.8266 25.0398 47.7881 25.1711 47.7308C25.2065 47.7151 25.2388 47.6985 25.2732 47.6787C25.3086 47.6589 25.3472 47.6484 25.3815 47.6234L25.5608 47.4901C26.4673 46.8065 28.1542 45.5364 30.6517 46.3429C31.1987 46.521 31.7875 46.221 31.9646 45.6729C32.1396 45.1259 31.8395 44.5382 31.2915 44.36Z" fill="white"/>
<path d="M18.5349 18.975C18.6475 19.4574 19.0757 19.7825 19.5497 19.7825C19.6268 19.7825 19.706 19.7741 19.7852 19.7564C20.3458 19.6262 20.6958 19.0677 20.5666 18.5062C20.2728 17.233 18.7537 11.189 15.6666 7.56109C16.3866 7.15059 17.2878 6.67028 18.2193 6.17329C20.5125 4.94907 23.0734 3.58315 24.7602 2.35059C26.4471 3.58315 29.008 4.95011 31.3012 6.17329C32.2337 6.67132 33.1339 7.15163 33.8539 7.56109C30.7668 11.19 29.2477 17.233 28.9539 18.5062C28.8247 19.0677 29.1747 19.6262 29.7353 19.7564C29.8134 19.7741 29.8936 19.7825 29.9707 19.7825C30.4448 19.7825 30.873 19.4574 30.9855 18.975C31.8086 15.4065 33.6705 10.4211 36.2065 8.11538C36.443 7.90075 36.568 7.58922 36.544 7.2704C36.5222 6.95159 36.3534 6.66194 36.0898 6.48169C35.275 5.92949 33.8883 5.18975 32.2837 4.33331C29.8759 3.04866 26.8795 1.44936 25.4333 0.230346C25.401 0.203256 25.3625 0.194921 25.327 0.173041C25.2676 0.13345 25.2103 0.100109 25.1457 0.0740618C25.0832 0.0500983 25.0238 0.0334281 24.9592 0.0209254C24.8905 0.00738079 24.8269 -0.000954339 24.7582 8.75525e-05C24.6936 8.75525e-05 24.6331 0.00738079 24.5696 0.0198835C24.5008 0.0323862 24.4373 0.0490564 24.3716 0.0761456C24.3091 0.101151 24.2539 0.134492 24.1966 0.170958C24.1622 0.194921 24.1216 0.203256 24.0882 0.231387C22.641 1.44936 19.6446 3.04866 17.2378 4.33435C15.6333 5.19079 14.2465 5.93053 13.4318 6.48273C13.1671 6.66194 12.9994 6.95263 12.9775 7.27145C12.9535 7.59027 13.0796 7.90179 13.3151 8.11642C15.85 10.4211 17.7119 15.4065 18.5349 18.975Z" fill="white"/>
</svg>
