<svg width="51" height="50" viewBox="0 0 51 50" fill="none" xmlns="http://www.w3.org/2000/svg">
<path d="M13.2138 14.0407H1.25651C0.680469 14.0407 0.214844 13.574 0.214844 12.999V1.04167C0.214844 0.466669 0.680469 0 1.25651 0H13.2138C13.7898 0 14.2555 0.466669 14.2555 1.04167V12.999C14.2555 13.574 13.7888 14.0407 13.2138 14.0407ZM2.29818 11.9574H12.1721V2.08334H2.29818V11.9574Z" fill="white"/>
<path d="M13.2138 47.9169H1.25651C0.680469 47.9169 0.214844 47.4513 0.214844 46.8752V18.9772C0.214844 18.4022 0.680469 17.9355 1.25651 17.9355H32.144C33.2169 17.9355 34.0909 17.0615 34.0909 15.9876C34.0909 14.9136 33.2169 14.0407 32.144 14.0407H19.1909C18.6148 14.0407 18.1492 13.574 18.1492 12.999V1.04167C18.1492 0.466669 18.6148 0 19.1909 0H32.144C40.9596 0 48.1315 7.17191 48.1315 15.9876C48.1315 24.8033 40.9596 31.9752 32.144 31.9752H14.2555V46.8752C14.2555 47.4513 13.7888 47.9169 13.2138 47.9169ZM2.29818 45.8336H12.1721V30.9325C12.1721 30.3564 12.6378 29.8908 13.2138 29.8908H32.1451C39.8117 29.8908 46.0492 23.6532 46.0492 15.9865C46.0482 8.32088 39.8117 2.08334 32.144 2.08334H20.2326V11.9574H32.144C34.3669 11.9574 36.1742 13.7657 36.1742 15.9876C36.1742 18.2105 34.3669 20.0189 32.144 20.0189H2.29818V45.8336Z" fill="white"/>
</svg>
