<svg width="51" height="50" viewBox="0 0 51 50" fill="none" xmlns="http://www.w3.org/2000/svg">
<path d="M46.093 5.97852H41.1128C39.9888 5.97852 39.0742 6.89206 39.0742 8.01603V45.8339H35.1784V16.9848C35.1784 15.8609 34.2648 14.9463 33.1419 14.9463H28.1596C27.0357 14.9463 26.1211 15.8609 26.1211 16.9848V45.8339H22.2273V23.9588C22.2273 22.8349 21.3128 21.9213 20.1888 21.9213H15.2065C14.0836 21.9213 13.1701 22.8359 13.1701 23.9588V45.8339H9.27422V29.937C9.27422 28.813 8.35964 27.8984 7.23568 27.8984H2.25339C1.12943 27.8984 0.214844 28.813 0.214844 29.937V46.8756C0.214844 47.4506 0.680469 47.9173 1.25651 47.9173H47.0898C47.6659 47.9173 48.1315 47.4506 48.1315 46.8756V8.01603C48.1315 6.8931 47.2169 5.97852 46.093 5.97852ZM41.1128 8.06186L46.0482 8.01603V45.8339H41.1565L41.1128 8.06186ZM28.1586 17.0296L33.094 16.9848V45.8339H28.2013L28.1586 17.0296ZM15.2055 24.0046L20.143 23.9588V45.8339H15.2503L15.2055 24.0046ZM7.1888 29.937V45.8339H2.29505L2.25339 29.9818L7.1888 29.937Z" fill="white"/>
<path d="M3.2487 19.022C14.8529 19.022 25.9393 13.9261 37.081 3.48023V4.03023C37.081 4.60523 37.5466 5.0719 38.1227 5.0719C38.6987 5.0719 39.1643 4.60523 39.1643 4.03023V1.04167C39.1643 1.00938 39.1487 0.981255 39.1456 0.950005C39.1362 0.846879 39.1237 0.744795 39.0841 0.64792C39.0383 0.536461 38.9685 0.438544 38.8883 0.350002C38.8779 0.338543 38.8737 0.322918 38.8633 0.310418C38.7664 0.213543 38.6518 0.135417 38.5237 0.0822921C38.3966 0.0291668 38.2612 0.00208334 38.1258 0.00208334L38.1227 0H35.1341C34.5581 0 34.0924 0.466669 34.0924 1.04167C34.0924 1.61667 34.5581 2.08334 35.1341 2.08334H35.5299C24.7258 12.2001 14.4154 16.9386 3.2487 16.9386C2.67266 16.9386 2.20703 17.4053 2.20703 17.9803C2.20703 18.5553 2.67266 19.022 3.2487 19.022Z" fill="white"/>
</svg>
