<svg width="51" height="50" viewBox="0 0 51 50" fill="none" xmlns="http://www.w3.org/2000/svg">
<path d="M22.1543 28.11C21.8824 28.11 21.6158 28.0037 21.4178 27.8048C21.1418 27.5298 21.0439 27.1246 21.1616 26.7537L22.9533 21.108C21.7033 18.9778 21.0449 16.5497 21.0449 14.055C21.0449 6.30511 27.3804 0 35.169 0C42.9575 0 49.293 6.30511 49.293 14.055C49.293 21.8049 42.9575 28.11 35.169 28.11C32.6991 28.11 30.2866 27.4704 28.1585 26.2569L22.471 28.0621C22.3668 28.0944 22.2606 28.11 22.1543 28.11ZM28.2877 24.0809C28.4793 24.0809 28.6679 24.134 28.8345 24.2361C30.7314 25.4079 32.9221 26.0267 35.1679 26.0267C41.8065 26.0267 47.2086 20.6559 47.2086 14.055C47.2086 7.45405 41.8075 2.0833 35.169 2.0833C28.5293 2.0833 23.1283 7.45405 23.1283 14.055C23.1283 16.3195 23.7647 18.5174 24.9689 20.4101C25.1345 20.6705 25.1762 20.9903 25.0824 21.284L23.7554 25.4673L27.972 24.1288C28.0762 24.0975 28.1825 24.0809 28.2877 24.0809Z" fill="white"/>
<path d="M35.8908 24.5351H34.571C33.7491 24.5351 33.0772 24.1278 32.6793 23.3882C32.5251 23.0882 32.4522 22.8018 32.4522 22.5174V21.3862C32.4522 20.6456 32.8355 20.0018 33.5314 19.5737C33.5803 19.5435 33.6314 19.5175 33.6835 19.4966C33.9762 19.3779 34.2647 19.3175 34.5376 19.3175H35.9241C36.7502 19.3175 37.422 19.7539 37.8147 20.5466C37.9543 20.8747 38.0106 21.1758 38.0106 21.506V22.3455C38.0106 23.2841 37.5304 24.0268 36.6918 24.383C36.4064 24.4903 36.1522 24.5351 35.8908 24.5351ZM34.5345 22.4143L35.8908 22.4518C35.9137 22.4549 35.9283 22.4278 35.9283 22.3455V21.506C35.9147 21.4018 35.8897 21.3778 35.8897 21.3778L34.5491 21.3997C34.5376 21.4039 34.521 21.4278 34.521 21.4278L34.5345 22.4143ZM35.8231 18.2664H34.6397C33.7012 18.2664 32.9595 17.7852 32.6033 16.9456C32.5012 16.6988 32.4522 16.456 32.4522 16.2133L32.1543 5.65934C32.1543 4.88227 32.5439 4.24166 33.2501 3.825C33.2803 3.80625 33.3116 3.79062 33.3449 3.77604C33.6303 3.64479 33.9314 3.57812 34.2418 3.57812H36.0845C36.9127 3.57812 37.5939 4.01562 38.0043 4.8104C38.0314 4.86456 38.0554 4.92081 38.0731 4.97914C38.1491 5.22497 38.1877 5.4906 38.1877 5.76872L38.0606 13.1467C38.0502 13.7228 37.5554 14.178 37.0002 14.1707C36.4252 14.1603 35.9668 13.6863 35.9772 13.1113L36.1043 5.75205C36.1043 5.72705 36.1022 5.70309 36.1002 5.68122C36.0835 5.65934 36.0741 5.65101 36.0741 5.65101L34.2408 5.66351C34.2366 5.66351 34.2147 5.69059 34.2147 5.69059L34.5345 16.1831C34.5439 16.1779 34.5689 16.1863 34.6397 16.1863H35.8231C35.8554 16.1863 35.8824 16.1842 35.9033 16.1831C35.9252 16.1581 35.9283 16.1269 35.9283 16.08C35.9283 15.505 36.3939 15.0384 36.9699 15.0384C37.546 15.0384 38.0116 15.505 38.0116 16.08C38.0116 16.9935 37.5481 17.7321 36.7377 18.105C36.7022 18.1216 36.6668 18.1352 36.6304 18.1477C36.3877 18.2258 36.1158 18.2664 35.8231 18.2664Z" fill="white"/>
<path d="M19.1703 26.6515C20.5442 25.0411 21.3797 22.9567 21.3797 20.6786C21.3797 15.5954 17.2432 11.459 12.1598 11.459C7.07543 11.459 2.93895 15.5954 2.93895 20.6786C2.93895 22.9536 3.77124 25.0348 5.14208 26.6442C2.14832 28.2202 0.212891 31.3441 0.212891 34.8024V45.0314C0.212891 46.7334 1.59727 48.1178 3.29937 48.1178H21.0203C22.7224 48.1178 24.1068 46.7324 24.1068 45.0314V34.8024C24.1057 31.3608 22.1609 28.2296 19.1703 26.6515ZM12.1598 13.5423C16.0953 13.5423 19.2963 16.7433 19.2963 20.6786C19.2963 24.614 16.0953 27.815 12.1598 27.815C8.22439 27.815 5.02229 24.6129 5.02229 20.6786C5.02229 16.7433 8.22335 13.5423 12.1598 13.5423ZM22.0224 45.0303C22.0224 45.5835 21.5724 46.0334 21.0193 46.0334H3.29937C2.74624 46.0345 2.29623 45.5845 2.29623 45.0303V34.8013C2.29623 31.8649 4.10562 29.2483 6.81605 28.1775C8.32439 29.2566 10.1671 29.8983 12.1598 29.8983C14.1546 29.8983 15.9973 29.2545 17.5088 28.1743C20.213 29.2452 22.0234 31.8805 22.0234 34.8013L22.0224 45.0303Z" fill="white"/>
</svg>
