<svg width="51" height="50" viewBox="0 0 51 50" fill="none" xmlns="http://www.w3.org/2000/svg">
<path d="M47.0879 7.97075H43.1473V1.04166C43.1473 0.466662 42.6816 0 42.1056 0H32.1421C27.5254 0 23.7129 3.49163 23.1941 7.97075H1.25456C0.678516 7.97075 0.212891 8.43741 0.212891 9.01241V46.8745C0.212891 47.4505 0.678516 47.9162 1.25456 47.9162H24.1712H47.0879C47.6639 47.9162 48.1296 47.4505 48.1296 46.8745V9.01241C48.1296 8.43741 47.6639 7.97075 47.0879 7.97075ZM32.1421 2.08331H41.0639V9.01241V37.8611H32.1421C31.8119 37.8611 31.4858 37.8819 31.1639 37.9173C31.0577 37.9288 30.9546 37.9496 30.8494 37.9652C30.6369 37.9954 30.4244 38.0288 30.2171 38.0736C30.0941 38.0996 29.9744 38.1361 29.8535 38.1673C29.6681 38.2163 29.4848 38.2663 29.3046 38.3256C29.1796 38.3673 29.0577 38.4142 28.9358 38.4611C28.765 38.5267 28.5962 38.5954 28.4316 38.6704C28.3119 38.7256 28.1931 38.7819 28.0754 38.8423C27.9139 38.9236 27.7556 39.0111 27.6004 39.1027C27.4889 39.1683 27.3775 39.234 27.2691 39.3038C27.1139 39.4048 26.9639 39.511 26.816 39.6204C26.715 39.6944 26.615 39.7663 26.5181 39.8433C26.3629 39.9673 26.2171 40.0996 26.0712 40.2329C25.99 40.3069 25.9066 40.3767 25.8296 40.4537C25.6525 40.6267 25.4869 40.81 25.3254 40.9985C25.29 41.0392 25.2494 41.0756 25.215 41.1173V9.01241C25.2129 5.19161 28.3212 2.08331 32.1421 2.08331ZM2.29622 10.0541H23.1296V45.8329H2.29622V10.0541ZM46.0462 45.8329H25.3004C25.3098 45.7683 25.3181 45.7047 25.3285 45.6412C25.3462 45.5454 25.3639 45.4506 25.3858 45.3579C25.4129 45.2349 25.4462 45.1131 25.4796 44.9922C25.5046 44.9037 25.5296 44.8141 25.5577 44.7277C25.5983 44.6037 25.6441 44.4839 25.691 44.362C25.7223 44.2818 25.7525 44.2006 25.7869 44.1214C25.8431 43.9933 25.9056 43.8683 25.9702 43.7433C26.0035 43.6777 26.0327 43.61 26.0691 43.5454C26.1587 43.385 26.2556 43.2277 26.3556 43.0746C26.3723 43.0496 26.3848 43.0235 26.4014 43.0006C26.5212 42.8235 26.6494 42.6537 26.7837 42.4902C26.8244 42.4402 26.8691 42.3943 26.9108 42.3464C27.0087 42.2339 27.1066 42.1225 27.2098 42.0173C27.2671 41.9589 27.3275 41.9069 27.3869 41.8506C27.4816 41.76 27.5785 41.6704 27.6775 41.586C27.7441 41.5287 27.8139 41.4766 27.8827 41.4225C27.9816 41.3454 28.0806 41.2704 28.1837 41.1975C28.2577 41.1454 28.3337 41.0964 28.4098 41.0475C28.5139 40.9808 28.6191 40.9162 28.7264 40.8537C28.8056 40.8089 28.8858 40.7652 28.9671 40.7235C29.0775 40.6662 29.1889 40.6131 29.3025 40.5621C29.3858 40.5246 29.4691 40.4871 29.5546 40.4537C29.6712 40.4058 29.791 40.3631 29.9108 40.3225C29.9962 40.2933 30.0816 40.2631 30.1681 40.2371C30.2941 40.1996 30.4244 40.1694 30.5535 40.1381C30.6379 40.1173 30.7202 40.0954 30.8056 40.0787C30.9504 40.0506 31.0973 40.0298 31.2452 40.0121C31.3181 40.0017 31.391 39.9892 31.465 39.9819C31.6879 39.96 31.9129 39.9475 32.141 39.9475H42.1046C42.6806 39.9475 43.1462 39.4819 43.1462 38.9058V10.0541H46.0462V45.8329Z" fill="white"/>
<path d="M37.1235 18.9316H32.1413C30.9798 18.9316 29.8475 19.1504 28.7746 19.5816C28.2413 19.7952 27.9819 20.4025 28.1965 20.9358C28.359 21.3431 28.7496 21.5899 29.1631 21.5899C29.2923 21.5899 29.4246 21.566 29.5517 21.5139C30.3756 21.1827 31.2475 21.015 32.1413 21.015H37.1235C37.6996 21.015 38.1652 20.5483 38.1652 19.9733C38.1652 19.3983 37.6996 18.9316 37.1235 18.9316Z" fill="white"/>
<path d="M29.1633 15.6105C29.2935 15.6105 29.4247 15.5866 29.5529 15.5345C30.3758 15.2032 31.2466 15.0345 32.1414 15.0345H37.1237C37.6997 15.0345 38.1654 14.5678 38.1654 13.9928C38.1654 13.4178 37.6997 12.9512 37.1237 12.9512H32.1414C30.9789 12.9512 29.8456 13.1699 28.7737 13.6022C28.2404 13.8178 27.982 14.4241 28.1966 14.9574C28.3602 15.3636 28.7508 15.6105 29.1633 15.6105Z" fill="white"/>
<path d="M37.1235 24.9082H32.1413C30.9798 24.9082 29.8475 25.127 28.7746 25.5582C28.2413 25.7728 27.9819 26.379 28.1965 26.9123C28.359 27.3196 28.7496 27.5665 29.1631 27.5665C29.2923 27.5665 29.4246 27.5426 29.5517 27.4905C30.3756 27.1592 31.2475 26.9915 32.1413 26.9915H37.1235C37.6996 26.9915 38.1652 26.5249 38.1652 25.9499C38.1652 25.3749 37.6996 24.9082 37.1235 24.9082Z" fill="white"/>
<path d="M19.1891 26.9023H6.23698C5.66094 26.9023 5.19531 27.369 5.19531 27.944C5.19531 28.519 5.66094 28.9857 6.23698 28.9857H19.1891C19.7651 28.9857 20.2307 28.519 20.2307 27.944C20.2307 27.369 19.7641 26.9023 19.1891 26.9023Z" fill="white"/>
<path d="M19.1891 20.9238H6.23698C5.66094 20.9238 5.19531 21.3905 5.19531 21.9655C5.19531 22.5405 5.66094 23.0071 6.23698 23.0071H19.1891C19.7651 23.0071 20.2307 22.5405 20.2307 21.9655C20.2307 21.3905 19.7641 20.9238 19.1891 20.9238Z" fill="white"/>
<path d="M19.1891 32.8789H6.23698C5.66094 32.8789 5.19531 33.3445 5.19531 33.9206C5.19531 34.4966 5.66094 34.9622 6.23698 34.9622H19.1891C19.7651 34.9622 20.2307 34.4966 20.2307 33.9206C20.2307 33.3445 19.7641 32.8789 19.1891 32.8789Z" fill="white"/>
</svg>
