<svg width="51" height="50" viewBox="0 0 51 50" fill="none" xmlns="http://www.w3.org/2000/svg">
<path d="M11.9043 40.1574C11.3418 40.1011 10.822 40.5209 10.7668 41.0928C10.7105 41.6657 11.1303 42.1751 11.7022 42.2303C14.4366 42.497 17.3199 42.6324 20.2741 42.6324C20.9491 42.6324 21.6178 42.6251 22.2803 42.6116C22.8553 42.6001 23.3116 42.1241 23.3011 41.5491C23.2897 40.9741 22.8126 40.5293 22.2376 40.5282C18.7616 40.6001 15.1834 40.4772 11.9043 40.1574Z" fill="white"/>
<path d="M26.7514 45.601C24.6743 45.7552 22.4952 45.8333 20.2754 45.8333C13.0618 45.8333 6.28268 44.9781 2.29622 43.5833V40.4958C3.68164 40.9313 5.32018 41.3125 7.18893 41.6313C7.75872 41.7292 8.2931 41.3469 8.38997 40.7802C8.48789 40.2135 8.1056 39.675 7.53893 39.5781C7.11081 39.5052 6.70664 39.424 6.30143 39.3427C13.4473 37.1698 18.6743 30.5135 18.6743 22.6771C18.6743 19.0323 17.5566 15.5365 15.3931 12.5042C14.4431 11.3646 13.9202 9.92083 13.9202 8.43854C13.9202 4.93438 16.7702 2.08333 20.2754 2.08333C23.7796 2.08333 26.6306 4.93438 26.6306 8.43854C26.6306 9.92083 26.1077 11.3646 25.1098 12.5667C22.9941 15.5365 21.8764 19.0323 21.8764 22.6771C21.8764 24.4563 22.1431 26.2104 22.6691 27.8885C22.84 28.4375 23.4223 28.7427 23.9743 28.5708C24.5233 28.4 24.8285 27.8146 24.6566 27.2656C24.1952 25.7875 23.9598 24.2438 23.9598 22.676C23.9598 19.4677 24.9441 16.3896 26.7598 13.8375C28.0202 12.324 28.715 10.4073 28.715 8.4375C28.7129 3.78542 24.9285 0 20.2754 0C15.6223 0 11.8368 3.78542 11.8368 8.43854C11.8368 10.4073 12.5316 12.325 13.7441 13.775C15.6066 16.3896 16.591 19.4677 16.591 22.676C16.591 31.0521 9.81081 37.9021 1.45456 38.0063C1.18372 37.9531 0.901432 38.0031 0.669141 38.1604C0.383724 38.3552 0.212891 38.6781 0.212891 39.024V44.3073C0.212891 44.7344 0.473307 45.1177 0.870182 45.275C5.02852 46.9292 12.2837 47.9167 20.2754 47.9167C22.5473 47.9167 24.7775 47.8365 26.9066 47.6781C27.4806 47.6354 27.9108 47.1365 27.8681 46.5625C27.8254 45.9885 27.3379 45.5521 26.7514 45.601Z" fill="white"/>
<path d="M35.6289 47.916C28.7362 47.916 23.1289 42.3087 23.1289 35.416C23.1289 28.5233 28.7362 22.916 35.6289 22.916C42.5216 22.916 48.1289 28.5233 48.1289 35.416C48.1289 42.3087 42.5216 47.916 35.6289 47.916ZM35.6289 24.9993C29.8852 24.9993 25.2122 29.6723 25.2122 35.416C25.2122 41.1598 29.8852 45.8327 35.6289 45.8327C41.3727 45.8327 46.0456 41.1598 46.0456 35.416C46.0456 29.6723 41.3727 24.9993 35.6289 24.9993Z" fill="white"/>
<path d="M34.1331 42.4363C33.1904 42.4363 32.3029 42.0676 31.6362 41.3999L28.6487 38.4113C27.981 37.7447 27.6133 36.8582 27.6133 35.9145C27.6122 34.9707 27.981 34.0832 28.6487 33.4155C29.9831 32.0822 32.3091 32.0811 33.6435 33.4155L34.1341 33.9072L37.6154 30.427C38.9477 29.0926 41.2779 29.0915 42.6102 30.427C43.2789 31.0936 43.6456 31.9801 43.6456 32.9249C43.6456 33.8686 43.2779 34.7561 42.6102 35.4228L36.6331 41.3999C35.9654 42.0686 35.0789 42.4363 34.1331 42.4363ZM31.1456 34.4655C30.7591 34.4655 30.3945 34.6165 30.1216 34.8895C29.8466 35.1645 29.6956 35.528 29.6966 35.9145C29.6966 36.3009 29.8477 36.6645 30.1206 36.9374L33.1102 39.927C33.657 40.477 34.6122 40.4749 35.1581 39.927L41.1362 33.9488C41.4112 33.6738 41.5612 33.3103 41.5612 32.9238C41.5612 32.5374 41.4102 32.1738 41.1362 31.8999C40.5893 31.3509 39.6352 31.352 39.0872 31.8988L34.8695 36.1165C34.6747 36.3124 34.4102 36.4217 34.1331 36.4217C33.856 36.4217 33.5904 36.3124 33.3956 36.1165L32.1685 34.8884C31.8966 34.6155 31.532 34.4655 31.1456 34.4655Z" fill="white"/>
</svg>
